<ttFont>
          <CharString index="0">
            -107 callgsubr
            -220 -423 -76 callgsubr
            return
          </CharString>
          <CharString index="1">
            rmoveto
            128 273 112 263 172 274 -32 26 rcurveline
            -83 -22 -126 -275 -112 -265 -107 -257 rlinecurve
            -87 callsubr
            return
          </CharString>
          <CharString index="2">
            rmoveto
            -105 callgsubr
            187 hmoveto
            -105 callgsubr
            endchar
          </CharString>
          <CharString index="3">
            rmoveto
            -16 10 -39 -53 -62 -63 -90 -41 rlinecurve
            -15 24 -22 9 -1 vhcurveto
            74 23 52 24 60 51 rrcurveto
            endchar
          </CharString>
          <CharString index="4">
            420 457 rmoveto
            -11 28 rlineto
            -278 -21 -89 -156 -127 vvcurveto
            -139 80 -75 96 143 67 140 124 84 -23 47 -33 40 vhcurveto
            -143 -344 rmoveto
            -61 -35 61 83 108 84 78 99 17 hvcurveto
            return
          </CharString>
          <CharString index="5">
            46 -25 30 -37 -37 -36 -26 -47 vhcurveto
            43 -62 -3 -40 -20 -36 -53 -25 rlinecurve
            -10 10 -21 6 13 139 56 135 vhcurveto
            return
          </CharString>
          <CharString index="6">
            -93 callgsubr
            -92 callgsubr
            return
          </CharString>
          <CharString index="7">
            -20 hstem
            106 81 vstem
            -106 callgsubr
            -24 callgsubr
            -66 callgsubr
            return
          </CharString>
          <CharString index="8">
            rmoveto
            1 -14 -14 0 -15 hhcurveto
            -107 -110 -24 -38 -132 hvcurveto
            -2 -7 0 -24 -39 callgsubr
            4 vhcurveto
            22 102 95 12 83 -66 callsubr
            rlineto
            return
          </CharString>
          <CharString index="9">
            -102 callsubr
            endchar
          </CharString>
          <CharString index="10">
            -20 -7 callgsubr
            -101 callgsubr
            return
          </CharString>
          <CharString index="11">
            -20 hstem
            195 -98 -106 callsubr
            15 354 -97 callgsubr
            return
          </CharString>
          <CharString index="12">
            -20 hstem
            53 92 vstem
            205 -18 rmoveto
            -95 -28 -42 -59 -69 hhcurveto
            -11 -10 1 2 -13 hvcurveto
            -24 -97 25 -18 122 36 68 116 32 137 rlinecurve
            39 165 55 171 77 127 rrcurveto
            -44 callsubr
            -75 -101 -95 -180 -40 -141 rrcurveto
            -14 76 -12 86 89 -54 callsubr
            -139 48 -189 48 -100 vhcurveto
            -3 6 5 -1 6 hhcurveto
            13 12 5 9 14 hvcurveto
            return
          </CharString>
          <CharString index="13">
            -32 21 -32 38 38 41 27 49 24 -8 28 -27 21 vhcurveto
            -67 -9 -36 -33 -43 vvcurveto
            return
          </CharString>
          <CharString index="14">
            rmoveto
            -5 -39 -2 -35 -35 vvcurveto
            -16 0 -16 1 -16 vhcurveto
            -49 -10 -51 -13 -55 -16 rrcurveto
            14 callsubr
            4 vhcurveto
            54 11 52 10 50 5 6 -53 11 -56 13 -59 rrcurveto
            -3 8 23 -1 8 hhcurveto
            15 4 2 3 hvcurveto
            -8 60 -5 60 -2 53 rrcurveto
            1 18 16 1 17 -66 callsubr
            -18 55 rlineto
            1 -14 -14 0 -15 hhcurveto
            -37 -38 -3 -5 -39 hvcurveto
            2 46 6 47 10 51 -36 12 rcurveline
            return
          </CharString>
          <CharString index="15">
            319 466 -100 callgsubr
            660 -236 -100 callgsubr
            return
          </CharString>
          <CharString index="16">
            rmoveto
            -60 4 5 -10 10 hhcurveto
            10 16 4 16 10 hvcurveto
            258 24 370 39 161 vhcurveto
            -84 55 -26 -15 rlineto
            -12 -122 -6 -134 -149 vvcurveto
            -116 3 -125 7 -133 vhcurveto
            endchar
          </CharString>
          <CharString index="17">
            rmoveto
            39 30 48 40 31 46 rrcurveto
            11 -4 12 -7 8 vhcurveto
            17 -41 -46 7 -46 hhcurveto
            -21 -25 -2 -4 -24 hvcurveto
            -25 -47 11 -26 rlineto
            18 38 53 8 57 hhcurveto
            -48 -71 -40 -37 -51 -44 15 -27 rcurveline
            9 18 20 4 18 hhcurveto
            37 32 -20 -47 -50 -37 -31 -47 -20 -23 6 14 -23 hvcurveto
            -10 -10 -27 -11 hvcurveto
            -20 35 36 -7 31 hhcurveto
            76 71 46 81 62 -47 42 -69 4 hvcurveto
            return
          </CharString>
          <CharString index="18">
            -59 callgsubr
            -83 callgsubr
            -57 3 -57 6 -58 vhcurveto
            return
          </CharString>
          <CharString index="19">
            0 -5 -65 callgsubr
            13 -33 13 -4 return
          </CharString>
          <CharString index="20">
            -13 8 18 -9 -43 callsubr
            4 3 2 1 hvcurveto
            return
          </CharString>
          <CharString index="21">
            rmoveto
            24 hlineto
            34 53 42 45 73 49 rrcurveto
            15 -24 22 -9 1 vhcurveto
            -43 -18 -46 -30 -32 -30 -12 26 -16 24 -20 22 -63 -10 rcurveline
            -10 -16 45 -45 31 -46 26 -62 rlinecurve
            endchar
          </CharString>
          <CharString index="22">
            rmoveto
            32 -21 32 -38 -38 -41 -27 -49 -24 8 -28 27 -21 vhcurveto
            67 9 36 33 43 vvcurveto
            return
          </CharString>
          <CharString index="23">
            -20 hstem
            54 94 69 108 vstem
            345 472 rmoveto
            -22 19 rlineto
            -238 -32 -31 -84 -41 -107 163 -54 -81 vvcurveto
            -48 -48 -27 -65 vhcurveto
            -49 -30 11 -7 hhcurveto
            -3 0 -2 -2 -11 11 -25 7 -5 hvcurveto
            -13 41 22 -1 30 hhcurveto
            173 26 85 50 hvcurveto
            111 -177 63 78 vvcurveto
            42 35 15 39 31 34 -13 -17 26 vhcurveto
            return
          </CharString>
          <CharString index="24">
            rmoveto
            71 -50 46 -60 45 -80 20 12 rcurveline
            26 87 -44 55 -36 25 -50 35 rlinecurve
            1 13 56 35 40 25 54 55 rlinecurve
            -10 87 -18 12 -70 -86 -49 -54 -77 -50 rlinecurve
            return
          </CharString>
          <CharString index="25">
            218 636 rmoveto
            8 callsubr
            -72 -15 -120 -120 vvcurveto
            -191 38 -191 149 106 56 85 107 28 vhcurveto
            8 -58 11 -60 12 -60 rrcurveto
            return
          </CharString>
          <CharString index="26">
            37 -7 -17 callgsubr
            425 109 vstem
            181 512 rmoveto
            126 -66 118 -96 -123 vvcurveto
            -110 -106 -100 -161 vhcurveto
            -74 -22 callgsubr
            5 -18 10 -11 hvcurveto
            -16 73 40 -1 55 hhcurveto
            107 209 63 192 202 -267 68 -188 185 hvcurveto
            -42 -67 return
          </CharString>
          <CharString index="27">
            2 -20 6 -32 3 -67 rrcurveto
            -30 -28 2 6 -30 hvcurveto
            -60 callgsubr
            24 return
          </CharString>
          <CharString index="28">
            -50 callsubr
            188 hmoveto
            -98 callsubr
          </CharString>
          <CharString index="29">
            -90 46 rcurveline
            -26 -18 rlineto
            20 -127 9 -163 -134 vvcurveto
            -82 -5 return
          </CharString>
          <CharString index="30">
            -46 25 -30 37 37 36 26 47 vhcurveto
            -43 62 3 40 20 36 53 25 rlinecurve
            10 -10 21 -6 -13 -139 -56 -135 vhcurveto
            return
          </CharString>
          <CharString index="31">
            124 59 101 131 26 hvcurveto
            -80 callgsubr
            return
          </CharString>
          <CharString index="32">
            61 56 -5 -13 65 hvcurveto
            12 37 rlineto
            -23 237 rmoveto
            2 -14 -15 0 -14 hhcurveto
            -107 -111 -25 -37 -131 hvcurveto
            14 callsubr
            3 vhcurveto
            22 103 95 11 83 hhcurveto
            37 37 -3 -4 41 hvcurveto
            9 38 rlineto
            return
          </CharString>
          <CharString index="33">
            -20 hstem
            109 87 vstem
            -89 callgsubr
            return
          </CharString>
          <CharString index="34">
            -2 1 -2 7 11 27 7 -22 callsubr
            return
          </CharString>
          <CharString index="35">
            65 -21 441 -20 hstem
            289 295 -82 callgsubr
            return
          </CharString>
          <CharString index="36">
            -287 -117 -20 callsubr
            vstem
            178 53 rmoveto
            -98 callsubr
          </CharString>
          <CharString index="37">
            rmoveto
            60 -51 52 -24 74 -23 rrcurveto
            9 1 24 22 15 vvcurveto
            -90 41 -62 63 -39 53 -16 -10 rcurveline
            endchar
          </CharString>
          <CharString index="38">
            rrcurveto
            -2 -1 5 -1 8 hhcurveto
            9 24 6 9 11 hvcurveto
            return
          </CharString>
          <CharString index="39">
            rmoveto
            -126 50 -109 49 -72 72 -31 -11 rcurveline
            -34 -64 72 -50 97 -39 90 -31 rlinecurve
            -2 -13 -100 -30 -108 -40 -88 -50 rlinecurve
            13 -68 30 -11 111 77 111 48 137 50 rlinecurve
            return
          </CharString>
          <CharString index="40">
            39 36 rmoveto
            -94 callsubr
            return
          </CharString>
          <CharString index="41">
            hhcurveto
            37 37 -3 -5 41 hvcurveto
            9 38 return
          </CharString>
          <CharString index="42">
            -43 -17 29 -52 hhcurveto
            -31 -38 -22 -30 -16 hvcurveto
            18 -52 rlineto
            endchar
          </CharString>
          <CharString index="43">
            39 48 4 7 37 hvcurveto
            return
          </CharString>
          <CharString index="44">
            rmoveto
            -63 -46 -43 -59 -57 38 -25 46 61 48 43 59 57 -39 25 -45 hvcurveto
            -7 -51 rmoveto
            17 14 -11 -25 -27 -19 -19 -24 -16 -14 11 25 27 18 19 24 hvcurveto
            return
          </CharString>
          <CharString index="45">
            -13 23 26 -6 24 hhcurveto
            84 43 54 47 45 -39 22 -39 -13 -12 -2 -4 -11 hvcurveto
            return
          </CharString>
          <CharString index="46">
            448 676 rmoveto
            -320 -34 -98 -211 -168 vvcurveto
            return
          </CharString>
          <CharString index="47">
            46 -55 9 -68 -64 vvcurveto
            -66 -54 -94 -88 vhcurveto
            return
          </CharString>
          <CharString index="48">
            21 -6 -64 callgsubr
            return
          </CharString>
          <CharString index="49">
            -7 -21 513 -20 hstem
            53 92 vstem
            83 485 rmoveto
            -11 callsubr
            -177 42 -98 vhcurveto
            -10 9 19 -4 10 hhcurveto
            return
          </CharString>
          <CharString index="50">
            -40 callsubr
            25 164 15 149 6 142 return
          </CharString>
          <CharString index="51">
            vvcurveto
            -71 -76 -50 -113 vhcurveto
            -43 callgsubr
            -16 52 29 -1 37 hhcurveto
            224 46 118 65 return
          </CharString>
          <CharString index="52">
            -82 -7 -15 callgsubr
            hstem
            134 -12 rmoveto
            2 1 3 2 vvcurveto
            86 -15 85 -3 98 9 1 callgsubr
            -87 -46 -95 -8 -93 3 rlinecurve
            return
          </CharString>
          <CharString index="53">
            -34 callgsubr
            -80 40 -49 callsubr
            return
          </CharString>
          <CharString index="54">
            -57 callgsubr
            69 85 93 133 56 vhcurveto
            10 -77 17 -86 24 -55 rrcurveto
            return
          </CharString>
          <CharString index="55">
            -39 -33 2 6 -38 7 callsubr
            2 -13 11 -35 10 -6 return
          </CharString>
          <CharString index="56">
            vhcurveto
            -9 5 17 -3 8 hhcurveto
            10 2 0 8 hvcurveto
            return
          </CharString>
          <CharString index="57">
            rmoveto
            -102 callsubr
            return
          </CharString>
          <CharString index="58">
            -25 -17 rlineto
            -4 -21 -1 -23 -24 vvcurveto
            return
          </CharString>
          <CharString index="59">
            -25 -16 rlineto
            18 -9 callgsubr
            return
          </CharString>
          <CharString index="60">
            8 -11 13 -15 vhcurveto
            -28 -19 -24 -16 -31 hhcurveto
            return
          </CharString>
          <CharString index="61">
            -43 callsubr
            1 1 return
          </CharString>
          <CharString index="62">
            -18 1 -21 5 1 10 callsubr
            vhcurveto
            34 30 35 19 42 return
          </CharString>
          <CharString index="63">
            24 callsubr
            2 vvcurveto
            2 -1 2 -2 -10 -22 -6 -8 -11 vhcurveto
            return
          </CharString>
          <CharString index="64">
            10 hhcurveto
            7 return
          </CharString>
          <CharString index="65">
            -8 8 20 -6 9 hhcurveto
            6 11 callsubr
            hvcurveto
            -11 45 -15 -53 callgsubr
            -24 14 rlineto
            return
          </CharString>
          <CharString index="66">
            rrcurveto
            hintmask 01010000
            -81 39 -24 -15 17 -64 46 -135 -54 -280 rlinecurve
            -3 1 -1 6 -18 callgsubr
            return
          </CharString>
          <CharString index="67">
            23 callgsubr
            20 7 10 10 vhcurveto
            return
          </CharString>
          <CharString index="68">
            19 -30 rlineto
            11 72 67 5 72 hhcurveto
            67 84 -5 -17 78 -19 callsubr
            -7 9 hvcurveto
            return
          </CharString>
          <CharString index="69">
            rmoveto
            43 36 33 67 9 vhcurveto
            27 -21 8 -28 -24 vvcurveto
            -49 -41 -27 -38 -38 -21 32 32 vhcurveto
            endchar
          </CharString>
          <CharString index="70">
            rmoveto
            -15 8 -29 -55 -54 -60 -55 -44 rlinecurve
            -15 1 23 -20 8 hhcurveto
            63 29 34 27 49 55 rrcurveto
            return
          </CharString>
          <CharString index="71">
            vvcurveto
            -157 -14 -170 -11 -86 vhcurveto
            return
          </CharString>
          <CharString index="72">
            -85 41 -26 -16 rlineto
            return
          </CharString>
          <CharString index="73">
            13 -11 -22 6 -11 hhcurveto
            return
          </CharString>
          <CharString index="74">
            0 -6 vvcurveto
            return
          </CharString>
          <CharString index="75">
            rmoveto
            -31 callgsubr
          </CharString>
          <CharString index="76">
            -188 -93 -21 864 -20 hstem
            return
          </CharString>
          <CharString index="77">
            -21 267 -20 hstem
            return
          </CharString>
          <CharString index="78">
            40 -3 39 -7 39 -10 rrcurveto
            5 5 1 10 9 vvcurveto
            15 -4 18 -5 5 vhcurveto
            return
          </CharString>
          <CharString index="79">
            -40 3 -39 7 -39 10 rrcurveto
            -5 -5 -1 -10 -9 vvcurveto
            -15 4 -18 5 -5 vhcurveto
            return
          </CharString>
          <CharString index="80">
            -1 -82 -6 -82 -16 -95 rrcurveto
            -10 callgsubr
          </CharString>
          <CharString index="81">
            vstem
            175 446 rmoveto
            -81 39 -24 -15 return
          </CharString>
          <CharString index="82">
            rmoveto
            22 27 19 7 17 hhcurveto
            return
          </CharString>
          <CharString index="83">
            -9 8 -1 callsubr
            return
          </CharString>
          <CharString index="84">
            rmoveto
            70 -4 65 -13 73 vhcurveto
            109 return
          </CharString>
          <CharString index="85">
            9 8 vhcurveto
            return
          </CharString>
          <CharString index="86">
            rrcurveto
            -1 4 4 0 4 hhcurveto
            16 17 5 6 hvcurveto
            1 vlineto
            return
          </CharString>
          <CharString index="87">
            -30 callsubr
            43 135 return
          </CharString>
          <CharString index="88">
            hvcurveto
            11 callsubr
            7 11 -5 30 return
          </CharString>
          <CharString index="89">
            -13 11 22 -6 11 hhcurveto
            return
          </CharString>
          <CharString index="90">
            -13 -8 callgsubr
            return
          </CharString>
          <CharString index="91">
            -21 710 -20 return
          </CharString>
          <CharString index="92">
            -1 -21 30 -21 365 120 13 -20 hstemhm
            hintmask 10100000
            return
          </CharString>
          <CharString index="93">
            8 -19 24 -22 4 -1 rrcurveto
            2 10 callsubr
            hvcurveto
            return
          </CharString>
          <CharString index="94">
            -12 9 23 -8 9 hhcurveto
            7 3 3 2 1 hvcurveto
            return
          </CharString>
          <CharString index="95">
            -17 26 rlineto
            -313 -48 -103 -213 -164 vvcurveto
            return
          </CharString>
          <CharString index="96">
            -49 callsubr
            -139 48 return
          </CharString>
          <CharString index="97">
            rrcurveto
            -15 11 -17 10 -4 vhcurveto
            return
          </CharString>
          <CharString index="98">
            rmoveto
            -14 -25 -24 -8 -28 hhcurveto
            return
          </CharString>
          <CharString index="99">
            -2 1 -1 6 return
          </CharString>
          <CharString index="100">
            -4 1 -1 return
          </CharString>
          <CharString index="101">
            86 148 -20 hstem
            202 81 vstem
            209 return
          </CharString>
          <CharString index="102">
            28 124 22 137 117 vvcurveto
            21 0 return
          </CharString>
          <CharString index="103">
            vvcurveto
            65 61 22 62 41 42 -10 -16 30 vhcurveto
            return
          </CharString>
          <CharString index="104">
            -33 -78 11 -18 37 14 44 15 65 6 rlinecurve
            return
          </CharString>
          <CharString index="105">
            hvcurveto
            9 callsubr
            return
          </CharString>
          <CharString index="106">
            21 23 callsubr
            return
          </CharString>
          <CharString index="107">
            -21 841 -20 hstem
            return
          </CharString>
          <CharString index="108">
            -64 -93 -62 -6 -75 return
          </CharString>
          <CharString index="109">
            90 81 6 12 74 hvcurveto
            10 26 -32 84 return
          </CharString>
          <CharString index="110">
            -27 -33 91 554 92 -7 callgsubr
            return
          </CharString>
          <CharString index="111">
            -2 1 -1 8 9 21 6 9 9 vhcurveto
            return
          </CharString>
          <CharString index="112">
            -7 callsubr
            7 10 22 7 10 10 vhcurveto
            return
          </CharString>
          <CharString index="113">
            -153 vhcurveto
            -7 callsubr
            return
          </CharString>
          <CharString index="114">
            hvcurveto
            0 -4 -33 callsubr
            return
          </CharString>
          <CharString index="115">
            -35 callsubr
            -12 return
          </CharString>
          <CharString index="116">
            33 86 -17 26 return
          </CharString>
          <CharString index="117">
            1 1 1 1 return
          </CharString>
          <CharString index="118">
            1 1 2 return
          </CharString>
          <CharString index="119">
            193 endchar
          </CharString>
          <CharString index="120">
            -185 543 -21 195 -20 hstem
            return
          </CharString>
          <CharString index="121">
            -2 -8 0 -23 -39 callgsubr
            return
          </CharString>
          <CharString index="122">
            -20 hstem
            30 return
          </CharString>
          <CharString index="123">
            238 87 -21 678 -20 hstem
            return
          </CharString>
          <CharString index="124">
            104 113 111 190 28 return
          </CharString>
          <CharString index="125">
            hhcurveto
            -14 -10 -4 -16 -10 vvcurveto
            -9 return
          </CharString>
          <CharString index="126">
            rrcurveto
            224 17 62 101 80 vvcurveto
            return
          </CharString>
          <CharString index="127">
            rrcurveto
            -58 171 -39 return
          </CharString>
          <CharString index="128">
            114 73 114 return
          </CharString>
          <CharString index="129">
            rmoveto
            -11 18 rlineto
            -18 return
          </CharString>
          <CharString index="130">
            -6 -43 callsubr
            return
          </CharString>
          <CharString index="131">
            2 1 2 return
          </CharString>
        <CharString name=".notdef">
          -224 endchar
        </CharString>
        <CharString name="A">
          8 callgsubr
          hstem
          -107 callsubr
          endchar
        </CharString>
        <CharString name="AE">
          260 -13 -21 22 -16 callsubr
          hstemhm
          328 82 hintmask 10110000
          346 677 rmoveto
          -73 -50 -20 -104 -48 -124 -54 -117 rlinecurve
          -42 1 -38 4 -29 8 rrcurveto
          -2 -1 -2 -5 -7 5 -18 10 -11 hvcurveto
          23 -8 26 -5 27 -3 -50 -105 -52 -96 -36 -66 -69 callsubr
          43 64 53 90 50 96 45 -1 46 3 47 4 rrcurveto
          hintmask 01110000
          -159 13 48 -111 122 hhcurveto
          124 57 101 131 23 hvcurveto
          -80 callgsubr
          -88 -20 -40 -93 -92 hhcurveto
          -91 -24 103 120 -4 hvcurveto
          75 11 70 15 58 14 30 69 rcurveline
          -9 17 -69 -30 -78 -23 -77 -15 rlinecurve
          3 87 20 107 15 67 83 -13 84 0 91 12 1 callgsubr
          -71 -37 -165 -37 -140 74 rlinecurve
          -126 -395 rmoveto
          48 94 43 98 33 87 rrcurveto
          -9 -58 -7 -88 -66 vvcurveto
          -20 0 -19 1 -18 vhcurveto
          -38 -5 -36 -4 -35 -1 rrcurveto
          endchar
        </CharString>
        <CharString name="Aacute">
          8 callgsubr
          237 -20 hstem
          -107 callsubr
          250 649 -104 callsubr
        </CharString>
        <CharString name="Acircumflex">
          -2 134 177 65 12 callgsubr
        </CharString>
        <CharString name="Adieresis">
          -2 140 177 65 25 callgsubr
        </CharString>
        <CharString name="Agrave">
          -2 180 177 65 12 callsubr
        </CharString>
        <CharString name="Aring">
          8 callgsubr
          225 -20 hstem
          241 193 vstem
          -107 callgsubr
          -31 224 -63 callsubr
          -182 -596 -76 callgsubr
          endchar
        </CharString>
        <CharString name="Atilde">
          8 callgsubr
          78 6 callgsubr
          hintmask 11010000
          -107 callsubr
          51 488 -25 callsubr
          hintmask 11100000
          -46 callgsubr
          hintmask 11001000
          -47 callsubr
          hintmask 11100000
          -65 callsubr
        </CharString>
        <CharString name="B">
          5 -7 -16 callsubr
          hstemhm
          315 113 -41 112 hintmask 11010000
          183 320 rmoveto
          82 -6 122 -43 -93 vvcurveto
          -100 -98 -61 -137 vhcurveto
          -73 -22 callgsubr
          4 -18 11 -11 hvcurveto
          -16 73 40 -1 56 hhcurveto
          195 90 98 99 89 -77 90 -175 13 hvcurveto
          hintmask 11100000
          9 3 172 75 74 vvcurveto
          115 -227 -51 -122 105 vhcurveto
          -41 -67 rlineto
          71 -71 17 -161 -148 vvcurveto
          -71 -8 -64 -6 -40 vhcurveto
          -8 callsubr
          7 18 6 9 7 vhcurveto
          14 28 15 108 3 112 rrcurveto
          -15 246 rmoveto
          41 -22 106 -6 -40 vvcurveto
          -22 -52 -52 -79 -31 vhcurveto
          132 -16 41 0 vhcurveto
          endchar
        </CharString>
        <CharString name="C">
          -16 -32 87 622 15 callsubr
          89 vstem
          -25 callgsubr
          -167 74 -117 129 17 callsubr
          vhcurveto
          -80 callgsubr
          -146 -42 -57 -74 -93 hhcurveto
          -65 -64 -49 callgsubr
          endchar
        </CharString>
        <CharString name="Ccedilla">
          -16 -225 168 -126 84 67 87 622 -20 hstemhm
          30 89 hintmask 01111000
          -25 callgsubr
          -143 53 -106 96 -28 vhcurveto
          -29 -64 -75 callgsubr
          hintmask 10111000
          -62 callsubr
          17 33 rlineto
          -1 7 7 -1 8 hhcurveto
          17 callsubr
          hvcurveto
          -80 callgsubr
          -146 -42 -57 -74 -93 hhcurveto
          -65 -64 -49 callgsubr
          endchar
        </CharString>
        <CharString name="D">
          -81 callsubr
          rlineto
          71 -71 18 -161 -148 vvcurveto
          -71 -9 -64 -5 -40 vhcurveto
          -8 callsubr
          7 17 6 -22 callsubr
          16 33 17 137 130 15 callgsubr
        </CharString>
        <CharString name="Delta">
          29 -7 -21 43 -21 683 -20 hstem
          384 109 vstem
          276 677 rmoveto
          -79 -48 rlineto
          -57 -420 -115 -208 -24 vvcurveto
          -3 1 -2 3 vhcurveto
          11 57 81 11 57 hhcurveto
          52 67 -5 -17 63 hvcurveto
          1 1 86 40 -18 225 -84 274 -71 146 rlinecurve
          -34 callsubr
          108 -588 rmoveto
          -18 -1 -17 -18 vvcurveto
          -69 26 -98 9 -92 11 73 160 66 226 23 140 rrcurveto
          58 -171 40 -165 -183 vvcurveto
          endchar
        </CharString>
        <CharString name="E">
          38 -12 -21 710 -100 callsubr
          endchar
        </CharString>
        <CharString name="Eacute">
          38 -12 -21 927 -100 callsubr
          41 586 -104 callsubr
        </CharString>
        <CharString name="Ecircumflex">
          38 143 177 69 12 callgsubr
        </CharString>
        <CharString name="Edieresis">
          38 -12 -21 659 100 125 -20 hstemhm
          106 81 -3 21 callsubr
          hintmask 11110100
          -106 callgsubr
          hintmask 11101100
          -24 callgsubr
          hintmask 11110100
          -66 callgsubr
          hintmask 11101100
          -207 481 -105 callsubr
        </CharString>
        <CharString name="Egrave">
          38 152 177 69 12 callsubr
        </CharString>
        <CharString name="Eth">
          -81 callsubr
          62 -63 22 -132 4 -132 rlinecurve
          -15 hlineto
          -52 callsubr
          35 -9 36 -5 36 -2 -1 -65 -9 -58 -4 -37 rrcurveto
          -8 callsubr
          7 17 6 -22 callsubr
          9 19 10 57 7 71 rrcurveto
          40 38 4 7 39 hvcurveto
          33 78 -11 18 -35 -13 -41 -15 -58 -6 rlinecurve
          1 26 1 27 27 15 callgsubr
        </CharString>
        <CharString name="Euro">
          -12 -21 73 149 475 -20 hstem
          480 664 rmoveto
          -200 -31 -122 -120 -54 -131 rrcurveto
          -30 hlineto
          -29 -16 2 -5 hhcurveto
          0 -5 -1 -6 vvcurveto
          -10 17 -33 14 -2 vhcurveto
          12 -2 12 -1 12 -1 -7 -25 -4 -25 -3 -25 rrcurveto
          3 -36 -20 3 -3 hhcurveto
          -3 -2 -3 -3 -8 14 -38 13 -2 hvcurveto
          12 -3 12 -1 12 -2 rrcurveto
          -128 6 69 -104 120 hhcurveto
          112 67 74 97 43 hvcurveto
          10 -11 -72 callgsubr
          -2 hvcurveto
          -80 -42 -80 -24 -47 hhcurveto
          -70 -40 66 84 -10 hvcurveto
          -1 18 19 0 18 hhcurveto
          -64 callsubr
          30 69 -74 callgsubr
          -6 hlineto
          1 24 3 26 5 25 62 1 65 7 61 15 24 71 rcurveline
          -10 17 -40 -20 -61 -20 -83 -9 rlinecurve
          97 35 69 80 101 hhcurveto
          21 24 -4 -9 27 hvcurveto
          34 86 rlineto
          endchar
        </CharString>
        <CharString name="F">
          -71 -12 -21 26 -15 callgsubr
          hstemhm
          hintmask 01100000
          386 359 rmoveto
          -9 17 -39 -15 -55 -15 -74 -4 rlinecurve
          2 39 2 38 39 vvcurveto
          34 -1 34 -2 34 vhcurveto
          71 -7 71 2 78 10 1 callgsubr
          -73 -37 -86 -12 -84 -2 rlinecurve
          -1 12 -2 11 -2 12 -26 16 rcurveline
          -70 -48 -19 1 -18 1 -18 2 rlinecurve
          -40 callgsubr
          14 -4 14 -4 15 -3 8 -51 13 -86 5 -98 -21 1 -20 2 -21 4 rrcurveto
          -60 callgsubr
          15 -4 15 -3 16 -3 rrcurveto
          -11 1 -10 -11 vvcurveto
          -183 -31 -98 1 vhcurveto
          hintmask 10100000
          -2 callgsubr
          92 15 100 9 101 rrcurveto
          -1 8 7 1 8 hhcurveto
          40 50 4 7 38 hvcurveto
          endchar
        </CharString>
        <CharString name="G">
          34 -32 87 622 15 callsubr
          89 268 84 vstem
          496 -14 rmoveto
          -11 45 -14 80 81 vvcurveto
          69 11 64 21 40 vhcurveto
          -82 37 -24 -16 rlineto
          -6 -34 -4 -36 -31 vvcurveto
          -25 1 -24 3 -24 vhcurveto
          -104 -30 -52 -53 -66 hhcurveto
          -62 -62 -49 callgsubr
          33 86 -12 callsubr
          -167 69 -117 119 78 68 58 103 42 vhcurveto
          11 -45 16 -43 19 -45 7 -9 20 -5 8 -1 rrcurveto
          8 11 callsubr
          2 vvcurveto
          endchar
        </CharString>
        <CharString name="H">
          107 -13 -21 22 -21 26 -15 callgsubr
          hstemhm
          431 84 hintmask 00111000
          530 -31 rmoveto
          -83 callgsubr
          -21 0 -21 1 -21 vhcurveto
          -68 -31 -83 -12 -73 -3 rrcurveto
          3 45 2 45 45 vvcurveto
          69 -4 69 -11 65 vhcurveto
          -26 16 -87 -41 rlineto
          0 39 -141 10 -170 vhcurveto
          4 -41 -21 9 -8 hhcurveto
          -2 -2 -1 -8 -8 5 -24 10 -9 hvcurveto
          23 -6 19 -4 18 -2 rrcurveto
          -8 1 -8 -7 vvcurveto
          -183 -31 -98 1 vhcurveto
          hintmask 01011000
          -2 callgsubr
          89 15 97 9 98 rrcurveto
          -1 12 12 1 14 hhcurveto
          68 69 10 12 58 hvcurveto
          8 -101 17 -103 21 -107 rrcurveto
          hintmask 10011000
          -59 callgsubr
          endchar
        </CharString>
        <CharString name="I">
          -243 -12 -21 710 -74 callsubr
          endchar
        </CharString>
        <CharString name="Iacute">
          -243 -12 -21 927 -74 callsubr
          84 901 -104 callsubr
        </CharString>
        <CharString name="Icircumflex">
          -243 -57 177 73 12 callgsubr
        </CharString>
        <CharString name="Idieresis">
          -243 -12 -21 884 -20 hstemhm
          -8 114 3 87 -17 114 hintmask 11110000
          -89 callgsubr
          -152 796 rmoveto
          -105 callgsubr
          hintmask 11101000
          187 hmoveto
          -105 callgsubr
          endchar
        </CharString>
        <CharString name="Igrave">
          -243 -29 177 73 12 callsubr
        </CharString>
        <CharString name="J">
          -107 661 -20 hstem
          -59 97 157 98 vstem
          -59 -74 rmoveto
          16 -220 215 50 62 225 37 134 15 296 7 162 21 9 21 12 22 13 -14 callgsubr
          -37 -59 -15 -59 hhcurveto
          -50 -43 8 26 -34 hvcurveto
          -26 -86 11 -26 rlineto
          -6 25 26 -3 24 hhcurveto
          12 13 0 2 12 hvcurveto
          8 -91 4 -134 -60 -470 -157 26 135 vvcurveto
          -23 14 rlineto
          endchar
        </CharString>
        <CharString name="K">
          -13 -10 -21 24 -15 callgsubr
          hstemhm
          104 87 hintmask 10110000
          139 -12 rmoveto
          11 54 9 82 8 90 17 26 18 25 17 24 69 -122 85 -137 62 -60 -21 callsubr
          -66 87 -103 200 -33 101 63 85 68 85 82 101 21 callgsubr
          -73 -104 -66 -117 -62 -113 rlinecurve
          9 117 5 120 3 85 -78 callsubr
          -82 -14 -95 vhcurveto
          hintmask 01110000
          -10 callgsubr
        </CharString>
        <CharString name="L">
          -55 callsubr
          26 158 19 271 7 155 -89 46 rcurveline
          -26 -18 18 -127 6 -163 -3 -134 rlinecurve
          -27 callsubr
        </CharString>
        <CharString name="Lslash">
          -55 callsubr
          12 73 10 96 9 99 33 13 33 16 39 22 rrcurveto
          73 vlineto
          -18 10 -19 -15 -20 -22 -42 -26 rlinecurve
          7 91 5 87 3 67 -89 46 rcurveline
          -26 -18 13 -93 7 -113 1 -106 rlinecurve
          -28 -12 -34 -12 -41 -13 -10 callsubr
          30 6 27 5 25 7 rrcurveto
          -57 vlineto
          -27 callsubr
        </CharString>
        <CharString name="M">
          257 -14 -21 22 -21 27 -21 25 -21 701 -20 hstemhm
          106 97 378 84 hintmask 00011110
          680 -31 rmoveto
          -84 callgsubr
          -1 -1 -1 -1 vvcurveto
          -90 -176 -71 -147 -57 -153 -50 165 -56 160 -68 154 -26 16 rcurveline
          -103 -41 rlineto
          0 28 -157 -182 vvcurveto
          -211 -32 -110 2 vhcurveto
          hintmask 00101110
          5 callgsubr
          27 105 29 254 11 185 49 -157 47 -182 21 -190 rrcurveto
          hintmask 10001110
          95 -41 22 16 -12 45 32 170 45 142 82 191 rlinecurve
          -2 -32 -1 -33 -32 vvcurveto
          -146 21 -148 31 -157 vhcurveto
          hintmask 01001110
          -59 callgsubr
          endchar
        </CharString>
        <CharString name="N">
          84 -7 -21 25 -21 701 -20 hstemhm
          hintmask 01100000
          68 636 rmoveto
          0 38 -157 -182 vvcurveto
          -211 -42 -110 2 vhcurveto
          hintmask 10100000
          5 callgsubr
          34 132 23 177 168 vvcurveto
          79 -175 91 -154 104 -153 rrcurveto
          -11 7 22 -3 9 hhcurveto
          8 11 callsubr
          hvcurveto
          -20 184 6 307 68 170 -76 41 rcurveline
          -25 -16 -35 -181 -9 -176 23 -175 rlinecurve
          -81 128 -93 195 -60 209 -26 16 rcurveline
          endchar
        </CharString>
        <CharString name="Ntilde">
          84 119 177 78 196 endchar
        </CharString>
        <CharString name="O">
          77 -34 83 627 -1 callgsubr
          -98 callgsubr
          endchar
        </CharString>
        <CharString name="OE">
          372 -33 100 610 15 callsubr
          87 323 81 vstem
          619 -33 rmoveto
          -76 callsubr
          -24 callgsubr
          -35 callgsubr
          13 hvcurveto
          -2 26 27 0 26 hhcurveto
          -64 callsubr
          30 69 -73 callgsubr
          -4 33 36 -3 42 -47 callgsubr
          rlineto
          -35 -87 -66 -9 -62 hhcurveto
          -31 hlineto
          3 12 3 9 3 7 -26 16 rcurveline
          -56 -38 rlineto
          3 -38 -39 4 -44 hhcurveto
          -249 -105 -215 -175 -186 96 -103 118 114 67 67 91 35 hvcurveto
          -93 23 48 -65 88 hhcurveto
          -179 353 rmoveto
          -9 vlineto
          -114 -3 -57 -130 -113 hhcurveto
          -84 -66 79 149 149 80 141 171 31 30 -3 -4 29 hvcurveto
          -12 -81 -6 -165 -12 vvcurveto
          endchar
        </CharString>
        <CharString name="Oacute">
          77 -34 83 845 -1 callgsubr
          -98 callgsubr
          140 835 -104 callsubr
        </CharString>
        <CharString name="Ocircumflex">
          77 152 177 79 12 callgsubr
        </CharString>
        <CharString name="Odieresis">
          77 154 177 79 25 callgsubr
        </CharString>
        <CharString name="Ograve">
          77 178 177 79 12 callsubr
        </CharString>
        <CharString name="Omega">
          253 -9 -21 46 -21 617 -20 hstem
          89 96 403 104 vstem
          188 62 rmoveto
          -71 -7 -26 -10 -42 -16 -4 -9 -4 -30 -1 -11 rrcurveto
          -7 1 -2 0 vhcurveto
          16 47 57 9 56 hhcurveto
          35 33 -3 -7 29 hvcurveto
          21 30 rlineto
          -94 58 -40 98 96 vvcurveto
          144 89 140 135 93 86 -68 -146 -141 -57 -109 -115 -72 vhcurveto
          17 -30 rlineto
          7 31 33 3 35 hhcurveto
          59 56 -9 -16 44 hvcurveto
          0 1 3 13 vvcurveto
          14 -2 21 -2 8 vhcurveto
          -40 16 -27 10 -70 7 rrcurveto
          70 52 71 97 135 vvcurveto
          139 -96 127 -179 -197 -131 -166 -165 -79 31 -80 68 -60 vhcurveto
          endchar
        </CharString>
        <CharString name="Oslash">
          77 -82 -21 69 83 689 -1 callgsubr
          138 -98 rmoveto
          39 85 rlineto
          -14 30 33 -7 34 hhcurveto
          203 74 174 161 104 -37 99 -51 61 hvcurveto
          27 49 29 49 31 49 -32 26 rcurveline
          -83 -22 -21 -45 rlineto
          -293 -44 -91 -202 -162 vvcurveto
          -115 40 -84 60 -49 vhcurveto
          -40 -96 rlineto
          -87 callsubr
          161 147 rmoveto
          -29 -28 9 17 -24 hvcurveto
          67 144 67 143 78 145 rrcurveto
          38 -72 19 -88 -66 -48 callgsubr
          -173 242 rmoveto
          155 75 111 173 25 vhcurveto
          -70 -157 -67 -155 -64 -151 rrcurveto
          -29 41 -18 58 73 vvcurveto
          endchar
        </CharString>
        <CharString name="Otilde">
          77 -34 83 686 6 callgsubr
          30 96 hintmask 10101000
          -98 callgsubr
          -82 674 -25 callsubr
          hintmask 11001000
          -46 callgsubr
          hintmask 10011000
          -47 callsubr
          hintmask 11001000
          -65 callsubr
        </CharString>
        <CharString name="P">
          -24 -6 callgsubr
          210 19 callgsubr
          hlineto
          -1 -98 -8 -89 -5 -53 rrcurveto
          4 callsubr
          9 73 10 78 7 79 19 callsubr
          144 -195 10 -184 126 vhcurveto
          -47 -67 60 -70 18 -155 2 -143 rlinecurve
          -19 -28 callgsubr
          159 -42 callgsubr
          endchar
        </CharString>
        <CharString name="Q">
          77 -203 -21 900 -1 callgsubr
          -61 callsubr
          -167 84 -100 109 -24 vhcurveto
          -30 -34 -34 -32 -40 -30 -25 -7 -25 -7 -25 -9 -9 -6 -7 -20 -1 -8 rrcurveto
          -7 1 -2 2 vhcurveto
          0 1 0 -1 vvcurveto
          6 -5 17 -11 11 1 18 7 19 9 19 11 rrcurveto
          1 18 20 0 20 hhcurveto
          91 89 -15 -31 50 hvcurveto
          42 79 -14 25 rlineto
          14 -51 -51 5 -45 hhcurveto
          -21 -21 -1 -2 -20 hvcurveto
          25 22 25 24 22 25 rrcurveto
          183 15 68 165 154 vvcurveto
          -96 callgsubr
          endchar
        </CharString>
        <CharString name="R">
          24 -6 callgsubr
          235 19 callgsubr
          -2 hlineto
          -106 -8 -100 -6 -57 vhcurveto
          4 callsubr
          10 81 12 87 6 87 33 3 30 4 27 6 64 -110 73 -115 55 -54 -21 callsubr
          -49 64 -68 125 -46 102 rrcurveto
          91 39 29 62 52 vvcurveto
          136 -195 9 -184 119 vhcurveto
          -47 -67 56 -66 20 -141 3 -136 rlinecurve
          -18 -28 callgsubr
          134 -23 callsubr
          -45 86 -34 -82 vvcurveto
          -59 -56 -56 -125 -17 vhcurveto
          2 29 1 28 28 vvcurveto
          endchar
        </CharString>
        <CharString name="S">
          -66 -7 -21 692 -20 hstem
          43 96 148 112 vstem
          408 638 rmoveto
          2 callgsubr
          -130 244 -71 -121 -56 callsubr
          hvcurveto
          152 -260 69 115 -4 callsubr
          endchar
        </CharString>
        <CharString name="Scaron">
          -66 100 177 83 207 endchar
        </CharString>
        <CharString name="T">
          -47 -12 -21 573 87 34 -20 hstem
          206 88 vstem
          234 -19 rmoveto
          35 136 18 279 7 160 51 12 50 17 52 22 -14 callgsubr
          -48 -85 -15 -85 hhcurveto
          -72 -62 8 26 -48 hvcurveto
          -38 -86 16 -26 rlineto
          -6 36 37 -3 34 hhcurveto
          17 17 0 1 17 hvcurveto
          8 -90 4 -134 -60 vvcurveto
          -88 -5 -96 -17 -103 vhcurveto
          -8 callsubr
          10 24 5 9 9 vhcurveto
          endchar
        </CharString>
        <CharString name="Thorn">
          -50 -12 -17 callgsubr
          99 87 152 101 vstem
          160 280 -42 callgsubr
          -37 20 rmoveto
          18 -60 11 -63 1 -55 19 callsubr
          129 -156 21 -165 94 vhcurveto
          16 -581 -95 callgsubr
          endchar
        </CharString>
        <CharString name="U">
          107 -33 84 -64 -8 callgsubr
          hstemhm
          80 90 266 84 hintmask 10111000
          -82 callsubr
          hintmask 01111000
          -89 callsubr
          hintmask 10111000
          -62 callgsubr
          endchar
        </CharString>
        <CharString name="Uacute">
          107 -33 84 -64 -21 928 -20 hstemhm
          80 90 266 84 hintmask 10111000
          -82 callsubr
          hintmask 01111000
          -89 callsubr
          hintmask 10111000
          -62 callgsubr
          235 248 -104 callsubr
        </CharString>
        <CharString name="Ucircumflex">
          107 158 177 85 12 callgsubr
        </CharString>
        <CharString name="Udieresis">
          107 -33 84 -64 -21 885 -20 hstemhm
          80 90 23 21 callsubr
          -58 84 hintmask 10111100
          -82 callsubr
          hintmask 01111010
          -89 callsubr
          hintmask 10111100
          -62 callgsubr
          -25 143 -105 callsubr
        </CharString>
        <CharString name="Ugrave">
          107 146 177 85 12 callsubr
        </CharString>
        <CharString name="V">
          -26 -23 callgsubr
          rlineto
          57 420 115 -20 callgsubr
          -88 -152 -93 -296 -28 -170 20 callsubr
          166 -50 callgsubr
        </CharString>
        <CharString name="W">
          300 -23 callgsubr
          19 176 29 137 27 102 rlinecurve
          35 -171 57 -169 51 -104 rrcurveto
          -18 callsubr
          79 48 rlineto
          45 420 102 -20 callgsubr
          -78 -151 -82 -296 -24 -170 20 callsubr
          165 -37 callgsubr
          2 -25 2 -26 4 -26 rlinecurve
          -64 -158 -59 -220 -20 -140 20 callsubr
          165 -50 callgsubr
        </CharString>
        <CharString name="X">
          5 -12 -21 26 -21 696 -20 hstemhm
          hintmask 10100000
          59 -24 rmoveto
          53 86 58 88 62 91 60 -102 68 -91 64 -68 rrcurveto
          -6 5 12 -7 30 hhcurveto
          4 6 3 6 hvcurveto
          -68 108 -71 117 -56 117 74 105 80 107 89 110 21 callgsubr
          -55 -78 -54 -81 -54 -85 rlinecurve
          -32 77 -23 77 -9 72 -85 43 rcurveline
          -26 -18 19 -114 44 -118 57 -108 rlinecurve
          -63 -102 -60 -107 -57 -109 rrcurveto
          hintmask 01100000
          -12 7 17 -8 9 hhcurveto
          6 4 2 2 1 hvcurveto
          endchar
        </CharString>
        <CharString name="Y">
          -63 -13 -21 713 -20 hstem
          142 -99 callgsubr
          endchar
        </CharString>
        <CharString name="Yacute">
          -55 -13 -21 928 -20 hstem
          112 -99 callgsubr
          220 223 -104 callsubr
        </CharString>
        <CharString name="Ydieresis">
          -55 -13 -21 885 -20 hstem
          117 115 72 114 vstem
          112 -99 callgsubr
          -21 118 -105 callsubr
        </CharString>
        <CharString name="Z">
          -24 -9 -21 43 -21 676 -20 hstem
          434 668 rmoveto
          -77 -39 rlineto
          -2 -24 -25 -1 -26 hhcurveto
          -82 -89 5 29 -65 hvcurveto
          -15 -27 41 -83 91 -13 88 5 86 19 rlinecurve
          -47 -189 -148 -203 -135 -156 -7 -7 rcurveline
          -39 callsubr
          -81 27 -121 11 -116 11 134 149 158 204 37 219 rrcurveto
          endchar
        </CharString>
        <CharString name="Zcaron">
          -24 97 177 90 207 endchar
        </CharString>
        <CharString name="a">
          -34 0 callgsubr
          521 -20 hstemhm
          24 94 191 80 hintmask 10111000
          -53 callsubr
          hintmask 01111000
          -42 callsubr
          hintmask 10111000
          -56 callgsubr
          endchar
        </CharString>
        <CharString name="aacute">
          -34 115 0 97 194 endchar
        </CharString>
        <CharString name="acircumflex">
          -34 91 0 97 12 callgsubr
        </CharString>
        <CharString name="acute">
          13 callsubr
          257 707 -104 callsubr
        </CharString>
        <CharString name="adieresis">
          -34 78 0 97 25 callgsubr
        </CharString>
        <CharString name="ae">
          173 -22 99 416 -20 hstemhm
          24 94 0 174 86 172 hintmask 11101000
          -57 callgsubr
          vhcurveto
          hintmask 11011000
          58 70 66 101 54 hvcurveto
          -1 vlineto
          -101 callsubr
          -33 callgsubr
          -83 -19 -60 -35 -43 -43 10 33 13 33 14 33 -24 14 rcurveline
          -230 -395 rmoveto
          -35 -15 31 43 120 116 79 112 56 hvcurveto
          -117 -15 -83 -212 -80 hhcurveto
          347 300 -32 callsubr
        </CharString>
        <CharString name="agrave">
          -34 148 0 97 12 callsubr
        </CharString>
        <CharString name="ampersand">
          29 -22 89 -79 -21 697 -20 hstemhm
          25 97 18 103 hintmask 10111000
          174 -22 rmoveto
          72 68 43 68 54 hvcurveto
          36 -39 36 -37 36 -33 rrcurveto
          hintmask 01111000
          -5 6 12 -8 30 hhcurveto
          4 5 3 6 hvcurveto
          -45 56 -44 55 -40 54 33 57 23 67 11 70 rrcurveto
          -80 callgsubr
          -16 -54 -22 -52 -27 -44 rrcurveto
          -74 107 -51 99 84 vvcurveto
          74 44 33 57 35 41 -13 -23 38 vhcurveto
          -11 callgsubr
          -29 9 -33 15 -35 vhcurveto
          -95 -65 -44 -95 -80 vvcurveto
          hintmask 10111000
          -86 51 -70 98 vhcurveto
          153 156 rmoveto
          -42 -36 -41 -25 -42 hhcurveto
          -57 -29 54 55 48 22 57 45 42 hvcurveto
          35 -61 49 -65 54 -63 rrcurveto
          endchar
        </CharString>
        <CharString name="approxequal">
          189 88 -88 115 -105 -21 172 88 -88 115 hstemhm
          hintmask 10010000
          430 299 -9 callsubr
          hintmask 01010000
          -51 callgsubr
          hintmask 00110000
          -45 callsubr
          hhcurveto
          hintmask 10010000
          -54 callgsubr
          -25 202 -9 callsubr
          hintmask 10001000
          -51 callgsubr
          -45 callsubr
          -54 callgsubr
          endchar
        </CharString>
        <CharString name="aring">
          -34 164 0 97 202 endchar
        </CharString>
        <CharString name="asciicircum">
          326 -21 372 -20 hstem
          278 564 rmoveto
          23 -90 39 -97 42 -72 57 28 rcurveline
          15 31 -54 85 -48 102 -38 126 rlinecurve
          -60 hlineto
          -62 -126 -72 -102 -70 -85 7 -31 rcurveline
          53 -28 58 72 59 97 39 90 rlinecurve
          endchar
        </CharString>
        <CharString name="asciitilde">
          268 88 -88 115 -105 -21 hstemhm
          hintmask 10000000
          424 378 -9 callsubr
          hintmask 01000000
          -51 callgsubr
          hintmask 00100000
          -45 callsubr
          hhcurveto
          hintmask 10000000
          -54 callgsubr
          endchar
        </CharString>
        <CharString name="asterisk">
          -39 380 -21 341 -20 hstem
          222 696 rmoveto
          -11 -39 -6 -34 -4 -35 -26 23 -24 26 -23 29 -26 -18 rcurveline
          -22 -43 27 -29 29 -24 31 -23 rlinecurve
          -27 -21 -27 -23 -29 -25 rrcurveto
          -8 13 -35 9 3 31 27 36 57 vhcurveto
          1 -35 3 -38 3 -39 rrcurveto
          12 -7 26 -2 0 vvcurveto
          6 2 2 2 1 hvcurveto
          39 1 35 2 33 vhcurveto
          29 -17 31 -17 34 -18 rrcurveto
          18 5 15 29 0 vvcurveto
          2 -1 0 -1 1 vhcurveto
          -39 24 -33 23 -31 23 35 17 39 18 45 17 -7 31 rcurveline
          -33 34 -28 -11 -27 -13 -26 -16 rlinecurve
          6 28 7 27 10 30 -28 13 rcurveline
          endchar
        </CharString>
        <CharString name="at">
          378 -86 -21 88 163 -102 102 461 -20 hstemhm
          66 86 87 83 406 96 hintmask 11011110
          492 212 rmoveto
          -4 -36 -3 -36 -32 vvcurveto
          -72 15 -55 67 114 143 150 190 195 -140 89 -179 -244 -195 -187 -246 -191 121 -88 163 vhcurveto
          8 10 6 23 1 11 rrcurveto
          4 -2 2 -5 -116 -90 74 157 217 150 164 185 134 107 -76 -162 -196 -86 -82 -49 -34 -9 44 60 112 32 170 22 50 vhcurveto
          -20 12 -70 -30 rlineto
          -118 -51 -157 -120 -158 vvcurveto
          hintmask 10111110
          -51 21 -35 48 56 70 71 103 52 vhcurveto
          -125 -72 rmoveto
          -27 -12 26 37 95 115 74 79 31 hvcurveto
          -15 -96 rlineto
          -119 -47 -59 -48 -34 hhcurveto
          endchar
        </CharString>
        <CharString name="atilde">
          -34 0 callgsubr
          586 6 callgsubr
          24 94 191 80 hintmask 10100110
          -53 callsubr
          hintmask 01100110
          -42 callsubr
          hintmask 10010110
          -56 callgsubr
          -2 448 -25 callsubr
          hintmask 10100110
          -46 callgsubr
          hintmask 10001110
          -47 callsubr
          hintmask 10100110
          -65 callsubr
        </CharString>
        <CharString name="b">
          -31 -10 -21 402 120 221 -20 hstem
          348 94 vstem
          87 712 rmoveto
          -24 -16 rlineto
          17 -9 callgsubr
          -114 -11 -138 -36 6 callsubr
          8 2 2 0 1 2 vhcurveto
          205 15 168 212 181 vvcurveto
          66 -25 47 -61 -62 -74 -73 -108 -54 vhcurveto
          13 125 4 131 -15 108 rrcurveto
          -31 -565 rmoveto
          174 43 71 88 48 hhcurveto
          38 11 -31 -44 -80 -65 -136 -164 -55 hvcurveto
          endchar
        </CharString>
        <CharString name="backslash">
          -44 -82 0 callsubr
          412 -98 rmoveto
          -2 1 4 -3 7 hhcurveto
          10 18 9 13 8 hvcurveto
          -107 257 -112 265 -126 275 -83 22 rcurveline
          -32 -26 172 -274 112 -263 128 -273 rlinecurve
          endchar
        </CharString>
        <CharString name="bar">
          -31 callsubr
          118 -44 -91 callsubr
        </CharString>
        <CharString name="braceleft">
          17 callgsubr
          74 84 vstem
          36 321 rmoveto
          22 -6 19 -8 18 -16 rrcurveto
          -11 -45 -10 -81 -58 vvcurveto
          -107 24 -83 118 20 21 2 5 25 vhcurveto
          -5 callgsubr
          156 10 39 62 vvcurveto
          44 -11 29 -40 28 vhcurveto
          37 24 18 41 4 32 10 88 15 80 22 62 -29 callsubr
          21 -56 -43 11 -34 hhcurveto
          -88 -21 -152 -127 -26 1 -33 1 -19 hvcurveto
          -6 -10 -28 -9 -21 hhcurveto
          endchar
        </CharString>
        <CharString name="braceright">
          17 callgsubr
          189 84 vstem
          311 340 rmoveto
          -22 6 -19 8 -18 16 rrcurveto
          11 45 10 81 58 vvcurveto
          107 -24 83 -118 -20 -21 -2 -5 -25 vhcurveto
          -3 callsubr
          -156 -10 -39 -62 vvcurveto
          -44 11 -29 40 -28 vhcurveto
          -37 -24 -18 -41 -4 -32 -10 -88 -15 -80 -22 -62 -28 callsubr
          -21 56 43 -11 34 hhcurveto
          88 21 152 127 26 -1 33 -1 19 hvcurveto
          6 10 28 9 21 hhcurveto
          endchar
        </CharString>
        <CharString name="bracketleft">
          16 callgsubr
          123 750 rmoveto
          -23 -104 -15 -182 -109 vvcurveto
          -138 10 -140 19 -147 vhcurveto
          20 -17 rlineto
          48 59 4 7 41 hvcurveto
          -5 callgsubr
          73 vlineto
          214 13 251 52 147 vhcurveto
          -29 callsubr
          25 -53 -81 13 -81 hhcurveto
          endchar
        </CharString>
        <CharString name="bracketright">
          16 callgsubr
          224 -87 rmoveto
          23 104 15 182 109 vvcurveto
          138 -10 140 -19 147 vhcurveto
          -20 17 rlineto
          -48 -59 -4 -7 -41 hvcurveto
          -3 callsubr
          -73 vlineto
          -214 -13 -251 -52 -147 vhcurveto
          -28 callsubr
          -25 53 81 -13 81 hhcurveto
          endchar
        </CharString>
        <CharString name="breve">
          -171 569 -21 143 -20 hstem
          236 664 rmoveto
          -72 -119 -11 82 vvcurveto
          -15 10 -51 -27 rlineto
          -68 48 -30 61 81 61 62 71 vhcurveto
          -14 10 rlineto
          endchar
        </CharString>
        <CharString name="brokenbar">
          -31 callsubr
          184 234 rmoveto
          19 -3 7 -14 -13 -29 -6 -13 -17 vhcurveto
          1 -91 3 -97 6 -102 rrcurveto
          -56 4 5 -9 10 hhcurveto
          10 16 4 15 10 hvcurveto
          226 11 87 16 vvcurveto
          13 193 rmoveto
          11 121 11 78 17 69 -84 55 rcurveline
          -26 -15 rlineto
          -8 -81 -8 -87 -109 vvcurveto
          -46 4 -9 15 15 34 7 17 19 vhcurveto
          endchar
        </CharString>
        <CharString name="bullet">
          -236 190 -21 209 -20 hstem
          39 194 vstem
          39 259 rmoveto
          -45 30 -45 53 53 58 38 69 33 -12 39 -37 30 vhcurveto
          -94 -13 -51 -46 -60 vvcurveto
          endchar
        </CharString>
        <CharString name="c">
          -96 -22 99 421 -20 hstem
          41 86 vstem
          172 -22 rmoveto
          86 89 106 133 32 hvcurveto
          -70 callgsubr
          -99 47 -67 84 vhcurveto
          endchar
        </CharString>
        <CharString name="caron">
          -129 553 -21 185 -20 hstem
          152 532 -86 callsubr
        </CharString>
        <CharString name="ccedilla">
          -96 -225 168 -126 84 77 99 421 -20 hstemhm
          41 86 -86 228 hintmask 01111000
          379 217 rmoveto
          -70 callgsubr
          -87 36 -62 66 -14 vhcurveto
          -32 -70 -75 callgsubr
          hintmask 10110100
          -62 callsubr
          21 41 85 4 86 104 32 131 rlinecurve
          endchar
        </CharString>
        <CharString name="cedilla">
          -96 -225 168 57 -20 hstem
          165 hmoveto
          -41 -89 -75 callgsubr
          -62 callsubr
          33 63 rlineto
          endchar
        </CharString>
        <CharString name="cent">
          -48 -21 786 -20 hstem
          391 546 rmoveto
          -16 24 -23 -4 -22 -5 -20 -6 rlinecurve
          5 49 3 49 3 50 rrcurveto
          10 -5 -18 4 -11 hhcurveto
          -6 -54 -9 -61 -10 -65 rrcurveto
          -122 -55 -43 -105 -83 vvcurveto
          -103 44 -72 74 -11 vhcurveto
          -7 -60 -11 -76 -7 -33 rrcurveto
          -6 13 16 -2 17 hhcurveto
          9 8 0 3 9 hvcurveto
          4 33 9 92 4 57 56 24 50 66 16 101 rrcurveto
          -52 callgsubr
          endchar
        </CharString>
        <CharString name="circumflex">
          -129 543 -21 185 -20 hstem
          223 707 -86 callgsubr
        </CharString>
        <CharString name="colon">
          -292 -7 -21 484 -20 hstemhm
          39 138 -112 138 hintmask 11100000
          -67 callsubr
          hintmask 11010000
          -41 callgsubr
        </CharString>
        <CharString name="comma">
          -71 callsubr
        </CharString>
        <CharString name="copyright">
          16 callsubr
          50 230 vstem
          498 619 rmoveto
          -16 24 rlineto
          -209 -32 -69 -139 -105 vvcurveto
          -111 52 -76 86 71 75 73 127 20 vhcurveto
          -52 callgsubr
          -58 189 -78 callgsubr
          endchar
        </CharString>
        <CharString name="currency">
          110 -21 478 -20 hstem
          276 502 rmoveto
          -49 -42 -16 -28 -32 hvcurveto
          -26 26 -22 25 -17 22 -31 -19 rcurveline
          -27 -50 19 -24 25 -27 30 -26 rlinecurve
          -9 -23 -4 -26 -27 vvcurveto
          -42 9 -33 17 -24 vhcurveto
          -21 -29 -20 -26 -15 -24 -14 callsubr
          18 25 22 26 23 27 rrcurveto
          -10 21 24 -5 26 hhcurveto
          37 34 10 19 29 hvcurveto
          33 -29 33 -26 28 -22 -13 callgsubr
          -29 24 -31 29 -30 30 rrcurveto
          24 33 15 41 47 vvcurveto
          38 -9 31 -14 24 vhcurveto
          27 28 26 24 23 19 -21 32 rcurveline
          -51 24 -24 -19 -24 -25 -25 -30 rlinecurve
          6 -16 -18 3 -18 hhcurveto
          -4 -73 rmoveto
          54 44 -28 -59 -68 -60 -47 -76 -49 -45 28 59 68 56 47 76 hvcurveto
          endchar
        </CharString>
        <CharString name="d">
          -45 -22 120 -108 -21 743 -20 hstemhm
          24 94 hintmask 10110000
          309 674 rmoveto
          -9 -62 -2 -69 2 -71 rrcurveto
          -202 -90 -74 -173 -118 -16 callgsubr
          72 89 99 140 54 vhcurveto
          14 -88 16 -81 16 -62 rrcurveto
          hintmask 01110000
          -10 9 22 -7 -46 callsubr
          4 hvcurveto
          -33 153 -12 138 114 vvcurveto
          132 21 124 18 61 vhcurveto
          -25 16 rlineto
          -76 -408 rmoveto
          hintmask 10110000
          -138 -43 -61 -68 -41 hhcurveto
          -39 -11 31 43 73 52 113 133 60 hvcurveto
          2 -38 4 -38 4 -38 rrcurveto
          endchar
        </CharString>
        <CharString name="dagger">
          -31 callsubr
          344 532 -91 callgsubr
        </CharString>
        <CharString name="daggerdbl">
          -31 callsubr
          329 144 -85 callgsubr
          45 457 -91 callgsubr
        </CharString>
        <CharString name="degree">
          -201 468 -21 258 15 callsubr
          243 vstem
          167 705 rmoveto
          -80 -57 -60 -83 -80 47 -35 59 76 61 60 83 80 -49 35 -57 hvcurveto
          -5 -67 rmoveto
          35 28 -17 -36 -42 -38 -29 -49 -32 -29 17 36 42 36 29 49 hvcurveto
          endchar
        </CharString>
        <CharString name="dieresis">
          -103 570 -21 125 -20 hstem
          50 21 callsubr
          vstem
          50 602 -105 callsubr
        </CharString>
        <CharString name="divide">
          107 -21 213 86 185 -20 hstemhm
          157 138 -112 138 hintmask 11110000
          440 384 -99 callsubr
          -301 -179 rmoveto
          -94 callsubr
          hintmask 11101000
          -41 callgsubr
        </CharString>
        <CharString name="dollar">
          -100 -21 871 -20 hstemhm
          81 96 -96 226 18 112 hintmask 11011000
          446 638 rmoveto
          -17 26 -44 -6 -39 -8 -34 -9 rlinecurve
          6 93 rlineto
          11 -5 -18 5 -11 hhcurveto
          -14 -120 rlineto
          -163 -52 -26 -76 -42 vvcurveto
          -70 69 -52 65 -52 vhcurveto
          -19 -95 -21 -93 -23 -81 rrcurveto
          -16 hlineto
          -43 callgsubr
          38 -11 26 -4 25 -1 -8 -27 -9 -25 -8 -23 rrcurveto
          -13 18 25 -6 27 hhcurveto
          9 32 9 31 8 32 rrcurveto
          188 14 40 106 61 vvcurveto
          85 -82 59 -72 56 vhcurveto
          10 73 8 75 6 75 39 -1 39 -10 28 -15 rrcurveto
          -179 -157 rmoveto
          hintmask 11101000
          -33 30 -24 31 35 vvcurveto
          52 39 24 47 8 vhcurveto
          -8 -58 -10 -61 -11 -61 rrcurveto
          32 -153 rmoveto
          34 -32 25 -34 -38 vvcurveto
          -51 -39 -41 -64 -18 vhcurveto
          17 71 14 71 13 72 rrcurveto
          endchar
        </CharString>
        <CharString name="dotaccent">
          -266 556 -21 151 -20 hstem
          50 138 vstem
          50 600 rmoveto
          -30 20 -35 39 38 41 29 48 24 -9 29 -26 21 vhcurveto
          -67 -9 -36 -33 -44 vvcurveto
          endchar
        </CharString>
        <CharString name="dotlessi">
          -273 8 -21 498 -77 callgsubr
          endchar
        </CharString>
        <CharString name="e">
          -78 -22 99 400 -102 callgsubr
          endchar
        </CharString>
        <CharString name="eacute">
          -78 90 0 101 194 endchar
        </CharString>
        <CharString name="ecircumflex">
          -78 -22 99 630 -102 callgsubr
          38 309 -86 callgsubr
        </CharString>
        <CharString name="edieresis">
          -78 -22 99 597 -20 hstemhm
          41 86 -11 114 69 118 hintmask 11101000
          -103 callgsubr
          -87 callgsubr
          hintmask 11011000
          -148 204 -105 callsubr
        </CharString>
        <CharString name="egrave">
          -78 -22 99 640 -102 callgsubr
          -102 222 -70 callsubr
        </CharString>
        <CharString name="eight">
          46 -17 -21 709 -20 hstem
          65 86 253 85 vstem
          367 315 rmoveto
          92 39 30 71 71 vvcurveto
          89 -81 86 -134 -128 -81 -79 -96 -68 29 -69 93 -41 vhcurveto
          -92 -40 -41 -72 -72 vvcurveto
          -87 84 -85 142 136 84 77 95 69 -40 71 -93 41 vhcurveto
          -216 -174 rmoveto
          56 48 72 80 21 vhcurveto
          88 -33 37 -63 -62 vvcurveto
          -77 -61 -38 -63 -64 -65 40 84 vhcurveto
          246 351 rmoveto
          -56 -42 -72 -80 -21 vhcurveto
          -88 33 -31 63 62 vvcurveto
          77 58 38 60 59 64 -42 -82 vhcurveto
          endchar
        </CharString>
        <CharString name="ellipsis">
          132 -7 -19 callgsubr
          74 138 74 138 cntrmask 00111000
          -67 callsubr
          212 hmoveto
          -94 callsubr
          212 hmoveto
          -94 callsubr
          endchar
        </CharString>
        <CharString name="emdash">
          257 235 -21 113 -20 hstem
          393 214 rmoveto
          131 117 6 12 107 hvcurveto
          13 26 -40 69 rlineto
          -36 -186 -290 -12 -227 18 callsubr
          124 -20 269 vhcurveto
          endchar
        </CharString>
        <CharString name="endash">
          84 235 -21 113 -20 hstem
          304 214 rmoveto
          101 90 6 12 83 hvcurveto
          10 26 -31 69 rlineto
          -36 -142 -223 -12 -174 18 callsubr
          96 -20 208 vhcurveto
          endchar
        </CharString>
        <CharString name="equal">
          208 82 -79 -21 189 87 hstemhm
          hintmask 10100000
          -55 callgsubr
          hintmask 01100000
          -75 callsubr
          endchar
        </CharString>
        <CharString name="eth">
          3 callsubr
          458 578 rmoveto
          73 vlineto
          -18 10 -22 -18 -24 -26 -57 -31 rlinecurve
          -51 66 -76 47 -112 5 -24 -18 rcurveline
          14 callgsubr
          51 38 -19 -32 28 hvcurveto
          -30 -12 -35 -14 -43 -13 -10 callsubr
          45 9 38 8 34 11 12 -23 9 -26 7 -29 rrcurveto
          -32 callgsubr
          77 -13 115 -50 95 vhcurveto
          27 12 28 14 32 18 rrcurveto
          -229 -520 -38 callgsubr
        </CharString>
        <CharString name="exclam">
          -247 -7 -21 735 -20 hstem
          60 138 vstem
          101 224 rmoveto
          -36 5 -6 10 10 16 3 9 11 vhcurveto
          12 154 45 216 47 95 -81 48 rcurveline
          -27 -13 rlineto
          -33 -131 -15 -156 -183 vvcurveto
          -41 -188 -38 callsubr
        </CharString>
        <CharString name="exclamdown">
          -292 -214 -21 735 -20 hstem
          54 138 vstem
          151 248 rmoveto
          36 -5 6 -10 -10 -16 -3 -9 -11 vhcurveto
          -12 -154 -45 -216 -47 -95 81 -48 rcurveline
          27 13 rlineto
          33 131 15 156 183 vvcurveto
          41 188 -85 callsubr
          endchar
        </CharString>
        <CharString name="f">
          -216 -89 -21 822 -20 hstem
          308 442 rmoveto
          -21 callgsubr
          69 11 61 53 27 15 -6 -13 30 vhcurveto
          23 86 -24 18 -166 -41 -49 -85 -8 -43 rlinecurve
          -79 callgsubr
          rrcurveto
          35 34 4 7 33 hvcurveto
          endchar
        </CharString>
        <CharString name="fi">
          -5 -89 -21 118 -8 callgsubr
          hstem
          364 81 vstem
          458 595 rmoveto
          -23 86 rlineto
          13 -48 -25 4 -49 hhcurveto
          -93 -87 -37 -118 -42 hvcurveto
          -79 callgsubr
          43 1 94 10 41 22 rrcurveto
          6 -37 4 -46 -58 vvcurveto
          -69 -6 -87 -18 -107 vhcurveto
          -3 1 -1 6 8 -61 callgsubr
          -81 39 -37 -27 -76 -21 -71 -9 rlinecurve
          23 1 23 23 vvcurveto
          110 41 41 57 47 57 -29 -42 53 vhcurveto
          endchar
        </CharString>
        <CharString name="five">
          -18 -21 679 -20 hstem
          333 109 vstem
          442 168 rmoveto
          120 -101 74 -102 -37 -36 -10 -20 -32 vhcurveto
          14 69 7 92 7 72 rrcurveto
          2 21 23 1 27 hhcurveto
          73 64 -8 -22 52 hvcurveto
          11 28 -40 71 rlineto
          2 -23 -23 1 -23 hhcurveto
          -81 -80 -12 -29 -65 hvcurveto
          -12 -13 -6 -19 -15 vvcurveto
          2 -25 1 -25 -26 vvcurveto
          -51 -5 -105 -15 -61 vhcurveto
          -1 1 -1 7 10 27 5 6 8 vhcurveto
          20 30 32 9 30 hhcurveto
          68 57 -48 -82 -45 callgsubr
          hvcurveto
          endchar
        </CharString>
        <CharString name="fl">
          25 -89 -21 808 -20 hstem
          80 -105 rmoveto
          -57 callsubr
          rrcurveto
          35 34 4 7 33 hvcurveto
          30 69 -21 callgsubr
          112 44 40 54 31 34 -13 -20 32 vhcurveto
          11 -64 10 -85 -88 vvcurveto
          -114 -11 -138 -36 6 callsubr
          7 12 25 10 callgsubr
          35 129 34 211 187 vvcurveto
          56 -3 55 -7 50 vhcurveto
          13 -48 -51 11 -49 hhcurveto
          -93 -87 -37 -118 -42 hvcurveto
          -90 callgsubr
          endchar
        </CharString>
        <CharString name="florin">
          -263 -21 948 -20 hstem
          166 93 vstem
          420 339 rmoveto
          -9 17 -35 -14 -49 -15 -66 -5 rlinecurve
          2 54 0 54 51 vvcurveto
          79 21 28 60 40 38 -18 -18 23 vhcurveto
          32 86 -16 26 rlineto
          -269 -28 -26 -86 -79 vvcurveto
          -55 2 -48 2 -47 vhcurveto
          -36 1 -35 2 -36 5 rrcurveto
          -88 callsubr
          29 -6 29 -4 30 -2 rrcurveto
          -22 1 -21 -22 vvcurveto
          -135 -19 -235 -130 -11 -11 1 2 -13 vhcurveto
          -23 -97 25 -18 205 61 50 240 12 242 rlinecurve
          7 hlineto
          -64 callsubr
          endchar
        </CharString>
        <CharString name="four">
          -13 -21 686 -20 hstem
          250 633 rmoveto
          -45 -90 -45 -89 -166 -259 rrcurveto
          -9 6 -30 9 -7 vhcurveto
          -22 65 75 -8 75 hhcurveto
          25 26 1 1 25 hvcurveto
          5 -46 6 -47 7 -47 rrcurveto
          -9 7 -59 callsubr
          -3 31 -1 42 50 vvcurveto
          34 vlineto
          15 2 16 2 15 3 39 84 rcurveline
          -15 27 -20 -9 -23 -8 -25 -7 rlinecurve
          6 143 19 140 41 101 -130 48 rcurveline
          -12 -24 -6 -13 -12 hvcurveto
          -153 -445 rmoveto
          90 174 50 113 51 97 rrcurveto
          10 hlineto
          -5 -67 -6 -84 -79 vvcurveto
          -46 2 -46 3 -46 vhcurveto
          -11 -61 -67 -5 -67 hhcurveto
          endchar
        </CharString>
        <CharString name="foursuperior">
          -204 442 -21 419 -20 hstem
          168 840 -104 callgsubr
        </CharString>
        <CharString name="fraction">
          305 -82 0 callsubr
          222 -98 -67 callgsubr
        </CharString>
        <CharString name="g">
          -57 -284 102 170 110 387 -20 hstem
          32 80 202 85 vstem
          315 458 rmoveto
          -126 -59 -157 -119 -171 vvcurveto
          -77 29 -44 52 70 74 83 132 57 vhcurveto
          -146 -1 -17 -239 -171 hhcurveto
          -25 -27 4 9 -32 hvcurveto
          -23 -97 24 -18 rlineto
          174 102 154 137 31 hvcurveto
          -5 callsubr
          42 -1 20 vhcurveto
          -25 17 rlineto
          -61 -181 rmoveto
          -139 -43 -63 -67 -42 hhcurveto
          -34 -18 28 40 72 56 109 132 57 hvcurveto
          4 -28 5 -31 3 -41 rrcurveto
          endchar
        </CharString>
        <CharString name="germandbls">
          28 -89 -21 822 -20 hstemhm
          354 175 -109 109 hintmask 11010000
          240 266 rmoveto
          16 28 27 8 23 hhcurveto
          62 40 -52 -71 -94 -60 -57 -75 -32 -34 11 23 -35 hvcurveto
          -9 -10 -33 -13 hvcurveto
          -30 51 51 -13 46 hhcurveto
          111 105 75 132 108 -71 74 -99 -16 -17 -2 -4 -17 hvcurveto
          33 35 64 75 33 100 -36 70 -41 56 -48 32 -188 -51 -27 -75 -8 -43 -80 callsubr
          -7 24 -4 25 -3 rrcurveto
          1 -17 0 -19 -20 -36 callsubr
          -40 callsubr
          33 217 16 192 181 vvcurveto
          69 8 74 88 vhcurveto
          hintmask 11100000
          30 -25 49 -63 -25 vvcurveto
          -60 -135 -163 0 vhcurveto
          endchar
        </CharString>
        <CharString name="grave">
          13 callsubr
          50 620 -70 callsubr
        </CharString>
        <CharString name="greater">
          117 -21 407 -20 hstem
          456 332 -68 callsubr
          endchar
        </CharString>
        <CharString name="greaterequal">
          18 callgsubr
          456 452 -68 callsubr
          -7 -242 -99 callsubr
          endchar
        </CharString>
        <CharString name="guillemotleft">
          40 -71 callgsubr
          210 -61 -83 callsubr
          endchar
        </CharString>
        <CharString name="guillemotright">
          40 -72 callsubr
          220 61 -82 callgsubr
          endchar
        </CharString>
        <CharString name="guilsinglleft">
          -175 -71 callgsubr
          endchar
        </CharString>
        <CharString name="guilsinglright">
          -175 -72 callsubr
          endchar
        </CharString>
        <CharString name="h">
          -10 -10 -21 30 -21 374 120 240 -20 hstemhm
          hintmask 01110000
          353 -19 rmoveto
          -8 callsubr
          9 26 5 9 9 vhcurveto
          15 128 22 7 callgsubr
          -23 47 -57 -61 -72 -71 -105 -55 vhcurveto
          16 129 6 137 -16 112 -80 38 rcurveline
          -48 callsubr
          -114 -12 -138 -33 -153 vhcurveto
          hintmask 10110000
          -4 2 -1 7 9 23 10 callgsubr
          6 26 7 29 6 32 rrcurveto
          1 hlineto
          187 43 72 92 55 hhcurveto
          45 14 1 callsubr
          -8 -77 hvcurveto
          endchar
        </CharString>
        <CharString name="hungarumlaut">
          -68 538 -21 194 -20 hstem
          203 703 -37 callsubr
          133 75 -37 callsubr
          endchar
        </CharString>
        <CharString name="hyphen">
          -103 240 -21 107 -20 hstem
          366 308 22 callsubr
          -47 -60 -20 -99 hhcurveto
          -52 callsubr
          rrcurveto
          -12 48 51 -5 48 hhcurveto
          44 42 4 7 42 hvcurveto
          endchar
        </CharString>
        <CharString name="i">
          -273 8 -21 689 -20 hstem
          82 120 -26 callsubr
          17 -64 31 -140 -47 -275 rlinecurve
          -3 -1 2 -1 6 hhcurveto
          9 21 6 8 8 hvcurveto
          44 150 25 146 -10 149 rrcurveto
          -93 155 rmoveto
          -26 17 -30 34 13 callgsubr
          vhcurveto
          20 callgsubr
        </CharString>
        <CharString name="iacute">
          -273 8 -21 730 -77 callgsubr
          38 261 -104 callsubr
        </CharString>
        <CharString name="icircumflex">
          -273 -53 0 245 12 callgsubr
        </CharString>
        <CharString name="idieresis">
          -273 -61 0 245 25 callgsubr
        </CharString>
        <CharString name="igrave">
          -273 -23 0 245 12 callsubr
        </CharString>
        <CharString name="infinity">
          206 114 94 178 95 hstem
          345 224 rmoveto
          -76 22 53 -34 56 hhcurveto
          85 95 80 130 97 -61 60 -80 -53 -58 -33 -77 -41 hvcurveto
          76 -22 -53 34 -56 hhcurveto
          -85 -94 -79 -131 -97 60 -60 81 52 59 33 77 40 hvcurveto
          -115 162 rmoveto
          42 40 -33 -57 20 hvcurveto
          -63 -31 -50 -25 -47 hhcurveto
          -53 -26 36 41 47 38 54 67 hvcurveto
          249 -177 rmoveto
          -42 -41 33 57 -20 hvcurveto
          63 31 51 25 47 hhcurveto
          53 24 -36 -41 -48 -36 -53 -67 hvcurveto
          endchar
        </CharString>
        <CharString name="integral">
          -207 -220 112 712 112 hstem
          101 94 vstem
          355 698 rmoveto
          -24 18 rlineto
          -104 -4 -126 -208 -289 vvcurveto
          -43 vlineto
          -127 -12 -153 -91 -11 -11 1 2 -12 vhcurveto
          -23 -97 24 -18 rlineto
          104 4 126 208 289 vvcurveto
          42 vlineto
          127 12 154 91 11 11 -1 -2 12 vhcurveto
          endchar
        </CharString>
        <CharString name="j">
          -273 -263 -21 980 -20 hstemhm
          105 85 -85 109 hintmask 11100000
          83 -11 rmoveto
          -98 -18 -45 -63 -68 hhcurveto
          -11 -11 1 2 -13 hvcurveto
          -23 -97 25 -18 122 36 68 118 31 137 rlinecurve
          -5 callsubr
          16 -1 20 vhcurveto
          -80 43 -25 -17 rlineto
          9 -47 12 -81 -96 vvcurveto
          -72 -5 -85 -17 -98 vhcurveto
          11 632 rmoveto
          -26 -1 18 -30 34 hhcurveto
          hintmask 11010000
          13 callgsubr
          hvcurveto
          20 callgsubr
        </CharString>
        <CharString name="k">
          -54 -10 -21 33 -21 731 -20 hstemhm
          hintmask 01100000
          417 455 rmoveto
          -26 19 -105 -33 -77 -86 -55 -112 rlinecurve
          14 93 10 100 93 vvcurveto
          52 -4 48 -6 45 vhcurveto
          -80 38 -48 callsubr
          -110 -10 -134 -32 -149 vhcurveto
          -7 callsubr
          5 9 23 10 callgsubr
          16 71 4 4 9 54 20 53 26 45 rlinecurve
          1 -1 30 -58 90 -129 78 -67 rlinecurve
          hintmask 10100000
          -1 3 4 0 5 hhcurveto
          15 18 4 7 hvcurveto
          hintmask 01100000
          1 vlineto
          -70 77 -76 145 -36 100 rrcurveto
          31 34 39 19 39 hhcurveto
          11 11 -1 -3 13 hvcurveto
          endchar
        </CharString>
        <CharString name="l">
          -36 callgsubr
          -114 -11 -138 -36 6 callsubr
          7 12 25 10 callgsubr
          46 169 44 306 -31 213 rrcurveto
          endchar
        </CharString>
        <CharString name="less">
          117 -21 407 -20 hstem
          44 267 -68 callgsubr
          endchar
        </CharString>
        <CharString name="lessequal">
          18 callgsubr
          44 387 -68 callgsubr
          387 -299 -99 callsubr
          endchar
        </CharString>
        <CharString name="logicalnot">
          120 -21 294 -20 hstem
          445 375 22 callsubr
          -47 -136 -24 -99 hhcurveto
          -52 callsubr
          rrcurveto
          -13 54 56 -5 56 hhcurveto
          35 36 2 3 35 hvcurveto
          2 -66 18 -56 29 -57 rrcurveto
          -5 7 19 -3 10 hhcurveto
          5 3 0 2 hvcurveto
          -9 29 -10 38 51 vvcurveto
          12 1 34 5 34 vhcurveto
          endchar
        </CharString>
        <CharString name="lozenge">
          47 -196 -21 894 -20 hstem
          516 227 rmoveto
          -40 173 -71 116 -85 142 rrcurveto
          -34 callsubr
          -79 -48 -23 -160 -66 -111 -73 -125 rlinecurve
          40 -173 71 -116 85 -142 rrcurveto
          -18 callsubr
          79 48 23 160 66 111 73 125 rlinecurve
          -98 -37 rmoveto
          -60 -88 -55 -121 -38 -120 -75 120 -53 158 -4 131 60 88 55 121 38 120 75 -120 53 -158 4 -131 rrcurveto
          endchar
        </CharString>
        <CharString name="lslash">
          -36 callgsubr
          -26 vlineto
          -31 -14 -38 -14 -48 -15 -10 callsubr
          35 7 31 6 28 8 -5 -96 -13 -108 -27 -117 rrcurveto
          23 callgsubr
          25 10 callgsubr
          23 85 23 121 13 125 31 13 31 15 36 21 rrcurveto
          73 vlineto
          -18 10 -18 -15 -19 -20 -37 -23 rlinecurve
          6 99 0 99 -12 85 rrcurveto
          endchar
        </CharString>
        <CharString name="m">
          244 -15 callsubr
          345 -19 rmoveto
          -2 0 -1 5 10 26 5 -22 callsubr
          3 27 3 27 4 27 rrcurveto
          187 40 68 92 53 -4 callgsubr
          -2 0 -1 6 9 26 5 -22 callsubr
          16 128 22 7 callgsubr
          -24 47 -56 -60 -74 -78 -114 -52 vhcurveto
          2 26 1 27 26 vvcurveto
          66 -24 47 -56 -57 -68 -68 -103 -51 vhcurveto
          1 48 -3 48 -6 49 -41 callsubr
          18 48 14 48 9 48 rrcurveto
          hintmask 10100000
          138 41 57 69 46 -4 callgsubr
          endchar
        </CharString>
        <CharString name="macron">
          -191 586 -21 102 -20 hstem
          287 648 rmoveto
          -13 19 rlineto
          -21 -32 -43 -18 -74 -52 -24 8 -4 hhcurveto
          -3 -2 -3 -3 -11 9 -31 8 -6 hvcurveto
          -12 36 38 -5 37 hhcurveto
          32 31 4 7 32 hvcurveto
          endchar
        </CharString>
        <CharString name="minus">
          286 -21 34 86 hstem
          440 384 -99 callsubr
          endchar
        </CharString>
        <CharString name="mu">
          7 -205 -21 219 -21 27 91 403 -20 hstem
          350 81 vstem
          -44 callgsubr
          -25 -141 -15 -131 -139 vvcurveto
          -83 6 -86 11 -92 -51 callsubr
          -1 -30 callgsubr
          54 5 101 5 34 vhcurveto
          -30 22 22 -13 22 hhcurveto
          61 57 103 101 41 hvcurveto
          11 -76 17 -86 23 -55 rrcurveto
          -8 8 20 -6 10 hhcurveto
          5 24 callsubr
          hvcurveto
          -12 45 -14 -53 callgsubr
          -25 14 -80 -35 rlineto
          -6 -34 -3 -26 -65 vvcurveto
          -11 0 -13 1 -16 vhcurveto
          -134 -41 -59 -69 -47 hhcurveto
          -45 -14 72 93 61 6 76 8 76 hvcurveto
          endchar
        </CharString>
        <CharString name="multiply">
          145 -21 401 -20 hstem
          73 466 rmoveto
          27 -49 39 -49 45 -48 -42 -52 -39 -53 -32 -49 -14 callsubr
          36 50 42 50 44 45 55 -53 60 -50 54 -41 -13 callgsubr
          -57 47 -54 55 -48 56 57 52 57 45 51 34 -17 34 rcurveline
          -48 30 -50 -33 -51 -48 -48 -54 rlinecurve
          -39 50 -32 49 -25 44 -34 -15 rcurveline
          endchar
        </CharString>
        <CharString name="n">
          -6 -15 callsubr
          356 -19 rmoveto
          11 callgsubr
          10 26 5 -22 callsubr
          15 128 23 7 callgsubr
          -24 47 -56 -62 -73 -72 -108 -55 vhcurveto
          2 51 -2 51 -7 52 -41 callsubr
          9 24 7 24 7 24 rrcurveto
          2 hlineto
          hintmask 10100000
          187 42 72 92 56 hhcurveto
          44 15 1 callsubr
          -9 -77 hvcurveto
          endchar
        </CharString>
        <CharString name="nine">
          -24 -17 callgsubr
          38 100 231 96 vstem
          334 276 rmoveto
          -32 -98 -53 -100 -73 -111 rrcurveto
          -2 vlineto
          -3 17 -7 24 5 5 1 1 3 vhcurveto
          101 120 134 210 147 vvcurveto
          111 -56 120 -160 -142 -69 -112 -106 -123 91 -74 94 35 35 11 21 32 vhcurveto
          -55 329 rmoveto
          60 -25 39 -78 -70 vvcurveto
          -85 -59 -45 -59 -57 -56 43 91 97 72 72 60 vhcurveto
          endchar
        </CharString>
        <CharString name="notequal">
          6 -21 223 82 89 87 191 -20 hstem
          -55 callgsubr
          -75 callsubr
          -354 -421 rmoveto
          103 218 89 210 138 220 -26 20 rcurveline
          -66 -17 -101 -220 -89 -212 -86 -206 rlinecurve
          -10 6 15 -7 8 hhcurveto
          5 4 2 2 hvcurveto
          endchar
        </CharString>
        <CharString name="ntilde">
          -6 76 0 110 196 endchar
        </CharString>
        <CharString name="numbersign">
          -17 -21 757 -20 hstem
          34 -33 rmoveto
          19 74 18 74 18 73 70 4 67 4 67 5 -16 -74 -15 -73 -13 -72 rrcurveto
          -13 callsubr
          60 239 47 4 47 6 47 6 rlinecurve
          -3 callgsubr
          -45 -5 -41 -3 -39 -3 15 54 15 54 16 54 43 4 43 5 44 6 rrcurveto
          -3 callgsubr
          -39 -4 -37 -4 -34 -2 22 69 25 70 30 71 -33 23 rcurveline
          -76 -20 -53 -218 rlineto
          -2 -40 -37 -1 -36 hhcurveto
          -24 -24 0 1 -24 hvcurveto
          23 72 26 72 31 73 -33 23 rcurveline
          -76 -20 -18 -72 -18 -72 -16 -71 rlinecurve
          -36 3 -37 4 -38 6 -13 -39 rcurveline
          34 -58 71 4 -11 -47 -11 -46 -10 -47 rlinecurve
          -35 3 -36 4 -39 6 -13 -39 rcurveline
          34 -58 72 4 -14 -68 -13 -68 -13 -66 rlinecurve
          -13 callsubr
          308 454 rmoveto
          -13 -54 -12 -53 -11 -53 rrcurveto
          -2 -40 -37 -1 -36 hhcurveto
          -29 -28 0 2 -28 hvcurveto
          13 49 14 50 14 49 66 4 64 4 63 5 rrcurveto
          endchar
        </CharString>
        <CharString name="o">
          -27 -33 91 427 -97 callsubr
          endchar
        </CharString>
        <CharString name="oacute">
          -27 121 0 111 194 endchar
        </CharString>
        <CharString name="ocircumflex">
          -27 -33 91 649 -97 callsubr
          99 649 -86 callgsubr
        </CharString>
        <CharString name="odieresis">
          -27 -33 91 616 -20 hstemhm
          42 91 -8 114 73 116 hintmask 11101000
          -101 callgsubr
          hintmask 11011000
          -104 544 -105 callsubr
        </CharString>
        <CharString name="oe">
          223 -33 91 -91 110 -78 -21 507 -20 hstemhm
          42 91 0 238 -29 86 0 172 hintmask 10011010
          -103 callsubr
          hintmask 10010101
          -60 callsubr
          453 310 rmoveto
          -33 callgsubr
          hintmask 00111010
          -217 -50 -62 -157 24 callgsubr
          -93 callgsubr
          hintmask 01011001
          -92 callgsubr
          -117 30 -32 callsubr
        </CharString>
        <CharString name="ogonek">
          -78 -204 -21 225 -20 hstem
          174 hmoveto
          -45 -30 -33 -59 -42 vvcurveto
          -53 30 -41 60 48 52 47 64 26 vhcurveto
          7 -4 -13 7 -9 hhcurveto
          -41 -23 -27 -25 -28 hhcurveto
          -33 -17 24 33 34 18 42 39 33 hvcurveto
          endchar
        </CharString>
        <CharString name="ograve">
          -27 -33 91 659 -97 callsubr
          -57 562 -70 callsubr
        </CharString>
        <CharString name="one">
          -17 callsubr
          hstem
          308 -31 rmoveto
          -3 31 -1 42 50 vvcurveto
          192 14 226 56 126 vhcurveto
          -83 41 -27 -16 -5 -21 -4 -20 -3 -20 rlinecurve
          -50 -65 -75 -76 -82 -48 rrcurveto
          -19 1 33 -23 11 hhcurveto
          49 21 50 32 46 38 rrcurveto
          -3 -36 -1 -36 -37 vvcurveto
          -120 12 -122 19 -128 vhcurveto
          -9 7 -59 callsubr
          endchar
        </CharString>
        <CharString name="onehalf">
          9 callgsubr
          112 -21 750 -96 callsubr
          500 41 -81 callgsubr
        </CharString>
        <CharString name="onequarter">
          9 callgsubr
          111 -21 751 -96 callsubr
          418 150 -104 callgsubr
        </CharString>
        <CharString name="onesuperior">
          -204 442 -21 429 -20 hstem
          189 429 -97 callgsubr
          endchar
        </CharString>
        <CharString name="ordfeminine">
          -202 444 -21 320 -20 hstem
          18 228 vstem
          194 720 rmoveto
          -81 -36 -95 -75 -109 vvcurveto
          -42 17 -31 41 37 49 48 63 33 vhcurveto
          -46 7 10 -69 38 hhcurveto
          9 3 5 6 hvcurveto
          -7 26 -9 95 41 vvcurveto
          41 9 54 13 38 vhcurveto
          -22 14 rlineto
          -62 -71 rmoveto
          -22 1 -37 2 -15 vhcurveto
          -52 -15 -41 -42 -26 hhcurveto
          -13 -9 10 24 39 37 64 64 31 hvcurveto
          endchar
        </CharString>
        <CharString name="ordmasculine">
          -198 442 -21 316 -20 hstem
          28 242 vstem
          266 711 rmoveto
          -11 26 rlineto
          -171 -14 -56 -93 -77 vvcurveto
          -87 51 -45 60 89 42 85 76 39 -13 37 -19 23 vhcurveto
          -44 -6 rmoveto
          22 -29 5 -37 -35 vvcurveto
          -63 -35 -37 -33 -39 -20 36 42 52 31 60 69 11 vhcurveto
          endchar
        </CharString>
        <CharString name="oslash">
          -27 -187 -21 175 91 575 -20 -7 callgsubr
          97 -203 rmoveto
          81 175 rlineto
          -3 13 13 -2 14 hhcurveto
          143 67 140 124 75 -18 45 -28 38 hvcurveto
          37 67 1 1 28 50 29 49 32 51 rlinecurve
          -32 26 -83 -22 -62 -136 rlineto
          -218 -42 -72 -138 -114 vvcurveto
          -90 33 -63 49 -33 vhcurveto
          -75 -181 rlineto
          -87 callsubr
          132 261 rmoveto
          -11 hlineto
          44 93 44 92 48 93 rrcurveto
          14 -38 3 -41 -39 vvcurveto
          -66 -54 -94 -88 vhcurveto
          -96 144 rmoveto
          102 75 75 91 22 vhcurveto
          -46 -105 -45 -104 -44 -103 rrcurveto
          -20 26 -11 40 47 vvcurveto
          endchar
        </CharString>
        <CharString name="otilde">
          -27 79 0 111 196 endchar
        </CharString>
        <CharString name="p">
          -8 -254 -21 646 120 hstem
          371 94 vstem
          77 485 rmoveto
          -25 -17 rlineto
          18 -63 21 -131 -139 vvcurveto
          -114 -12 -138 -33 -153 vhcurveto
          5 callsubr
          15 63 17 83 13 91 rrcurveto
          238 81 86 190 128 vvcurveto
          66 -26 47 -60 -71 -87 -96 -136 -55 vhcurveto
          2 65 -3 64 -8 57 rrcurveto
          -1 -353 rmoveto
          186 42 75 93 48 hhcurveto
          39 11 -31 -44 -79 -63 -126 -159 -56 hvcurveto
          6 57 rlineto
          endchar
        </CharString>
        <CharString name="paragraph">
          -72 -66 -21 838 -20 hstem
          329 -84 rmoveto
          -3 36 -1 48 58 vvcurveto
          240 8 229 84 210 vhcurveto
          -24 14 rlineto
          -273 -98 -120 -142 -138 vvcurveto
          -81 49 -36 58 50 56 26 45 39 vhcurveto
          1 -129 12 -131 18 -137 rrcurveto
          -10 7 21 -7 -64 callgsubr
          endchar
        </CharString>
        <CharString name="parenleft">
          -187 -77 0 callsubr
          45 101 vstem
          285 -58 rmoveto
          -81 72 -58 115 164 vvcurveto
          158 52 151 119 110 vhcurveto
          18 -4 -14 13 -9 hhcurveto
          -163 -120 -82 -156 -178 vvcurveto
          -149 64 -134 128 -104 vhcurveto
          9 33 22 18 6 hvcurveto
          endchar
        </CharString>
        <CharString name="parenright">
          -187 -77 0 callsubr
          171 101 vstem
          32 703 rmoveto
          81 -72 58 -115 -164 vvcurveto
          -158 -52 -151 -119 -110 vhcurveto
          -18 4 14 -13 9 hhcurveto
          163 120 82 156 178 vvcurveto
          149 -64 134 -128 104 vhcurveto
          -9 -33 -22 -18 -6 hvcurveto
          endchar
        </CharString>
        <CharString name="partialdiff">
          3 callsubr
          434 247 rmoveto
          152 -48 294 -288 11 vhcurveto
          -24 -18 14 callgsubr
          100 49 -71 -105 26 hvcurveto
          -32 callgsubr
          vhcurveto
          -205 -189 -38 callgsubr
        </CharString>
        <CharString name="percent">
          9 callgsubr
          104 -21 758 -20 hstem
          -92 callsubr
          -295 -69 callgsubr
        </CharString>
        <CharString name="period">
          -292 -7 -19 callgsubr
          vstem
          -67 callsubr
          endchar
        </CharString>
        <CharString name="periodcentered">
          -292 220 -19 callgsubr
          vstem
          39 263 rmoveto
          -94 callsubr
          endchar
        </CharString>
        <CharString name="perthousand">
          604 -82 -21 104 -21 758 -20 hstem
          711 147 vstem
          -92 callsubr
          539 23 -100 callgsubr
          -614 -69 callgsubr
        </CharString>
        <CharString name="pi">
          64 8 -21 494 -20 hstem
          140 81 149 81 vstem
          528 461 rmoveto
          -11 20 rlineto
          -20 -58 -86 -21 -122 hhcurveto
          -71 -64 3 6 -69 hvcurveto
          0 -7 -33 callsubr
          1 -14 19 -38 17 -4 18 -3 19 -3 18 -2 rrcurveto
          5 -33 3 -41 -50 -27 callgsubr
          125 24 122 1 123 rrcurveto
          -2 34 35 -1 34 hhcurveto
          12 14 0 1 13 hvcurveto
          4 -32 3 -38 -44 -27 callgsubr
          126 24 124 1 125 15 1 14 2 13 2 rrcurveto
          endchar
        </CharString>
        <CharString name="plus">
          140 -21 180 -6 callsubr
          519 -93 callsubr
          endchar
        </CharString>
        <CharString name="plusminus">
          51 -21 34 86 252 -6 callsubr
          622 -93 callsubr
          175 -487 -99 callsubr
          endchar
        </CharString>
        <CharString name="product">
          209 -187 -21 925 -20 hstem
          163 80 250 80 vstem
          550 -138 rmoveto
          3 callgsubr
          130 0 119 -6 110 45 3 42 4 42 5 13 26 rcurveline
          -42 84 rlineto
          -39 -132 -301 -24 -209 hhcurveto
          -13 -10 -3 -16 -1 -10 rrcurveto
          -10 10 -5 60 -4 vhcurveto
          47 -3 32 -164 11 -365 -9 -255 rlinecurve
          -12 callgsubr
          3 callgsubr
          129 0 117 -6 109 rrcurveto
          -2 47 46 0 44 hhcurveto
          28 27 0 1 27 hvcurveto
          31 -167 11 -359 -9 -252 rrcurveto
          -12 callgsubr
          endchar
        </CharString>
        <CharString name="q">
          -53 -259 -21 258 120 395 -20 hstem
          24 94 vstem
          353 465 rmoveto
          -174 -53 -155 -141 -180 -16 callgsubr
          61 91 86 137 57 vhcurveto
          -16 -95 -12 -108 -94 vvcurveto
          -50 3 -49 5 -41 vhcurveto
          80 -44 25 16 rlineto
          -24 122 -11 112 109 vvcurveto
          136 20 128 32 136 vhcurveto
          -25 14 rlineto
          -57 -89 rmoveto
          -192 -33 -77 -114 -61 hhcurveto
          -36 -14 31 43 81 57 95 164 56 hvcurveto
          endchar
        </CharString>
        <CharString name="question">
          -99 -7 -21 737 -20 hstemhm
          65 138 -122 100 0 105 0 97 hintmask 11001000
          224 219 rmoveto
          -26 13 -17 21 28 vvcurveto
          hintmask 11010100
          83 202 49 126 vvcurveto
          56 -35 93 -257 21 vhcurveto
          -24 -20 34 -97 rlineto
          18 29 37 14 33 hhcurveto
          43 43 -16 -45 hvcurveto
          -98 -205 -41 -127 vvcurveto
          -32 32 -52 85 -30 vhcurveto
          16 10 15 21 hvcurveto
          hintmask 11100100
          -159 -183 -38 callsubr
        </CharString>
        <CharString name="questiondown">
          -99 -216 -21 737 -20 hstemhm
          22 97 83 138 -116 100 hintmask 11101000
          181 253 rmoveto
          26 -13 17 -21 -28 -83 -202 -49 24 callgsubr
          -56 35 -93 257 -21 vhcurveto
          24 20 -34 97 rlineto
          -18 -29 -37 -14 -33 hhcurveto
          -43 -43 16 45 hvcurveto
          98 205 41 127 vvcurveto
          32 -32 52 -85 30 vhcurveto
          -16 -10 -15 -21 hvcurveto
          hintmask 11110000
          159 183 -85 callsubr
          endchar
        </CharString>
        <CharString name="quotedbl">
          -191 -63 callgsubr
          147 hmoveto
          5 52 16 98 25 65 -70 35 rcurveline
          -19 -9 rlineto
          -12 -98 -5 -61 -66 vvcurveto
          -19 2 -5 8 17 21 3 5 12 vhcurveto
          endchar
        </CharString>
        <CharString name="quotedblbase">
          -99 -117 -20 callsubr
          53 135 vstem
          178 53 -79 callsubr
        </CharString>
        <CharString name="quotedblleft">
          -119 424 -30 callsubr
          39 135 53 -58 callgsubr
          188 hmoveto
          -77 callsubr
          endchar
        </CharString>
        <CharString name="quotedblright">
          -99 424 -20 callsubr
          53 135 vstem
          178 594 -79 callsubr
        </CharString>
        <CharString name="quoteleft">
          -307 424 -30 callsubr
          39 -58 callgsubr
          endchar
        </CharString>
        <CharString name="quoteright">
          -287 424 -20 callsubr
          vstem
          178 594 rmoveto
          -98 callsubr
        </CharString>
        <CharString name="quotesinglbase">
          -71 callsubr
        </CharString>
        <CharString name="quotesingle">
          -338 -63 callgsubr
          endchar
        </CharString>
        <CharString name="r">
          -175 -9 -21 515 -20 hstem
          353 464 rmoveto
          -21 19 -70 -27 -50 -68 -37 -87 rlinecurve
          14 vlineto
          44 -3 42 -4 41 vhcurveto
          -81 43 -24 -17 rlineto
          11 -41 20 -79 24 callgsubr
          -67 -6 -83 -20 -98 vhcurveto
          -2 2 -2 6 9 20 6 -22 callsubr
          13 34 12 35 9 36 rrcurveto
          172 50 22 91 82 hhcurveto
          8 10 -1 -3 10 hvcurveto
          endchar
        </CharString>
        <CharString name="radical">
          165 -184 -21 922 15 callsubr
          105 vstem
          218 -205 rmoveto
          82 48 65 349 117 342 42 107 rlinecurve
          -12 28 33 -10 36 hhcurveto
          13 14 2 3 15 hvcurveto
          37 76 -13 17 rlineto
          -16 -36 -36 -6 -34 hhcurveto
          -28 -27 4 7 -27 hvcurveto
          -99 -174 -152 -496 -38 -178 rrcurveto
          -45 126 -30 122 133 vvcurveto
          41 2 45 8 44 vhcurveto
          -26 13 -89 -34 9 -186 72 -227 64 -121 rlinecurve
          -13 11 21 -6 11 hhcurveto
          endchar
        </CharString>
        <CharString name="registered">
          16 callsubr
          268 232 vstem
          268 362 rmoveto
          -63 -5 -78 -4 -32 vhcurveto
          -5 3 -5 12 8 18 5 9 9 vhcurveto
          7 55 8 63 3 61 33 3 rcurveline
          36 -71 42 -67 36 -50 rrcurveto
          28 9 6 10 6 hvcurveto
          -31 47 -30 78 -28 66 rrcurveto
          44 23 28 22 46 vvcurveto
          84 -120 6 -115 69 vhcurveto
          -32 -48 rlineto
          31 -59 4 -102 -73 vvcurveto
          147 382 -78 callgsubr
          -93 -140 rmoveto
          50 -15 50 -22 -34 vvcurveto
          -37 -38 -23 -55 -8 vhcurveto
          51 -1 44 -6 44 vhcurveto
          endchar
        </CharString>
        <CharString name="ring">
          -211 542 -21 184 -20 hstem
          50 193 vstem
          159 705 -63 callsubr
          endchar
        </CharString>
        <CharString name="s">
          -136 -10 -21 522 -84 callsubr
          endchar
        </CharString>
        <CharString name="scaron">
          -136 -10 -21 748 -84 callsubr
          -118 149 -86 callsubr
        </CharString>
        <CharString name="section">
          -1 -155 -21 926 -20 hstem
          79 95 148 112 vstem
          110 391 rmoveto
          -22 -28 -9 -27 -24 -126 243 -81 -115 -56 callsubr
          152 -270 84 -54 148 hvcurveto
          303 -227 rmoveto
          12 23 10 29 21 146 -261 93 101 -4 callsubr
          33 86 2 callgsubr
          vvcurveto
          -130 220 -56 115 -196 vhcurveto
          endchar
        </CharString>
        <CharString name="semicolon">
          -292 -117 -21 594 -20 hstemhm
          42 135 -112 138 hintmask 11010000
          203 392 -85 callsubr
          hintmask 11100000
          -26 -339 rmoveto
          -98 callsubr
        </CharString>
        <CharString name="seven">
          -31 -21 697 -20 hstem
          180 -47 rmoveto
          81 211 75 184 129 210 rrcurveto
          4 vlineto
          10 -5 26 -8 7 vhcurveto
          31 -75 -90 9 -89 hhcurveto
          -41 -40 -2 -5 -38 hvcurveto
          -40 -82 12 -28 rlineto
          30 68 103 13 93 15 15 -1 15 hhcurveto
          -108 -232 -49 -161 -63 -207 rrcurveto
          -13 8 10 -9 -43 callsubr
          4 3 2 1 hvcurveto
          endchar
        </CharString>
        <CharString name="six">
          -20 -17 callgsubr
          40 96 231 100 vstem
          171 348 rmoveto
          35 98 59 100 81 111 rrcurveto
          5 -17 7 -24 -5 -5 -1 -1 -3 vhcurveto
          -108 -120 -144 -210 -147 vvcurveto
          -111 56 -120 160 142 69 112 106 123 -91 74 -94 -35 -35 -11 -21 -32 vhcurveto
          55 -329 rmoveto
          -60 25 -39 77 70 vvcurveto
          68 36 61 88 72 35 -69 -63 -97 -72 -72 -60 vhcurveto
          endchar
        </CharString>
        <CharString name="slash">
          -44 -82 0 callsubr
          48 -98 -67 callgsubr
        </CharString>
        <CharString name="space">
          -224 endchar
        </CharString>
        <CharString name="sterling">
          -9 -21 43 -21 672 -20 hstem
          112 86 vstem
          395 339 rmoveto
          -9 17 -42 -17 -61 -17 -85 -1 rlinecurve
          5 67 2 53 5 40 rrcurveto
          78 10 22 29 70 hhcurveto
          47 44 -18 -18 27 hvcurveto
          -11 callgsubr
          -61 3 -41 2 -47 vhcurveto
          -26 1 -26 3 -27 3 rrcurveto
          -88 callsubr
          19 -4 19 -3 20 -2 rrcurveto
          -51 -3 -57 -8 -75 vhcurveto
          -76 -77 19 -30 rlineto
          11 68 63 5 68 hhcurveto
          63 80 -5 -17 73 -19 callsubr
          -6 9 hvcurveto
          -74 27 -109 10 -105 11 12 69 8 61 5 53 rrcurveto
          -1 16 16 0 16 hhcurveto
          -64 callsubr
          endchar
        </CharString>
        <CharString name="summation">
          168 -185 -21 906 -20 hstem
          338 -206 rmoveto
          2 callsubr
          -93 -35 -200 -23 -158 -4 rlinecurve
          81 114 103 121 110 127 -82 111 -52 124 -32 119 rrcurveto
          -3 44 49 -1 46 hhcurveto
          2 callsubr
          rlineto
          -39 -104 -236 -24 -164 hhcurveto
          -11 -10 -3 -16 -10 vvcurveto
          -1 -5 15 -5 25 -4 41 -122 77 -118 75 -84 -94 -123 -76 -140 -87 -141 rrcurveto
          -11 -10 -3 -16 -10 vvcurveto
          -15 -1 159 -14 137 hhcurveto
          endchar
        </CharString>
        <CharString name="t">
          -191 -1 -21 625 -20 hstem
          327 457 rmoveto
          -10 16 -29 -11 -37 -13 -49 -6 rlinecurve
          6 117 -81 43 -24 -17 5 -37 3 -55 3 -56 rlinecurve
          -31 -36 2 6 -29 7 callsubr
          1 -10 10 -34 9 -4 25 -7 30 -4 28 -3 rrcurveto
          2 -48 1 -45 -28 vvcurveto
          -88 -6 -85 -16 -103 vhcurveto
          -8 callsubr
          9 25 5 -22 callsubr
          24 92 16 153 10 139 34 1 35 4 31 6 rrcurveto
          endchar
        </CharString>
        <CharString name="thorn">
          -3 -254 -21 646 120 221 -20 hstem
          102 82 192 94 vstem
          60 -270 rmoveto
          5 callsubr
          13 66 14 82 12 90 rrcurveto
          236 82 85 189 127 vvcurveto
          66 -26 47 -60 -68 -83 -89 -128 -55 vhcurveto
          4 64 2 65 62 vvcurveto
          74 -3 71 -8 64 vhcurveto
          -80 38 -25 -16 rlineto
          19 -81 15 -172 -176 vvcurveto
          -152 -3 -180 -39 -205 vhcurveto
          266 641 rmoveto
          39 11 -31 -44 -79 -62 -125 -158 -56 hvcurveto
          6 63 rlineto
          181 43 73 91 48 hhcurveto
          endchar
        </CharString>
        <CharString name="three">
          -18 -21 684 -20 hstem
          323 109 vstem
          62 537 rmoveto
          28 59 90 12 83 hhcurveto
          13 13 0 -1 12 hvcurveto
          -81 -122 -76 -74 -90 -76 rrcurveto
          -1 vlineto
          -1 1 0 0 vhcurveto
          20 -36 rlineto
          16 34 32 8 28 hhcurveto
          75 48 -52 -71 -45 callgsubr
          108 -80 74 -110 -10 -9 -1 -1 -10 hvcurveto
          77 58 79 70 62 90 rrcurveto
          15 -4 16 -9 9 vhcurveto
          29 -65 -77 10 -77 hhcurveto
          -38 -39 -3 -5 -35 hvcurveto
          -37 -72 rlineto
          endchar
        </CharString>
        <CharString name="threequarters">
          9 callgsubr
          111 -21 751 -20 hstem
          246 -98 -106 callsubr
          -106 584 -90 callsubr
          486 -74 -104 callgsubr
        </CharString>
        <CharString name="threesuperior">
          -204 439 -21 412 -20 hstem
          144 659 -90 callsubr
          endchar
        </CharString>
        <CharString name="tilde">
          -77 558 100 -91 -21 29 83 15 -20 hstemhm
          hintmask 01100000
          94 546 -25 callsubr
          hintmask 10000000
          -46 callgsubr
          hintmask 01010000
          -47 callsubr
          hintmask 10000000
          -65 callsubr
        </CharString>
        <CharString name="trademark">
          328 198 -21 466 -20 hstem
          752 188 rmoveto
          -5 42 -5 73 76 vvcurveto
          91 7 82 23 59 vhcurveto
          -65 32 -24 -14 -50 -100 -42 -85 -36 -92 rlinecurve
          -29 91 -32 93 -42 93 -23 14 rcurveline
          -76 -31 rlineto
          0 18 -105 -112 vvcurveto
          -118 -16 -59 -3 -26 vhcurveto
          -6 2 -3 11 12 22 5 11 10 vhcurveto
          14 56 17 125 8 111 27 -88 19 -91 12 -104 70 -31 rcurveline
          24 17 -9 29 17 89 24 83 38 95 rlinecurve
          -96 12 -98 20 -103 vhcurveto
          -9 9 18 -5 8 hhcurveto
          12 3 5 4 hvcurveto
          -569 6 rmoveto
          22 84 12 171 4 103 28 7 31 10 36 17 rrcurveto
          6 5 4 16 7 vvcurveto
          7 -1 6 -7 vhcurveto
          -7 -31 -58 -9 -52 hhcurveto
          -44 -40 6 19 -35 hvcurveto
          -30 -67 13 -22 rlineto
          -5 28 25 -2 45 hhcurveto
          5 -57 2 -77 -36 vvcurveto
          -55 -3 -61 -10 -65 vhcurveto
          -7 3 -2 10 9 18 4 10 10 vhcurveto
          endchar
        </CharString>
        <CharString name="two">
          -9 -21 43 -21 653 -20 hstem
          306 105 vstem
          411 486 rmoveto
          68 -38 91 -187 -31 -35 -3 -5 -40 vhcurveto
          -37 -72 12 -28 rlineto
          19 37 59 19 52 hhcurveto
          56 47 -22 -70 -115 -148 -181 -151 -174 hvcurveto
          -7 -7 -39 callsubr
          -80 27 -119 11 -115 10 rrcurveto
          131 135 145 168 106 vvcurveto
          endchar
        </CharString>
        <CharString name="twosuperior">
          -204 443 -21 408 -20 hstem
          250 731 -81 callgsubr
        </CharString>
        <CharString name="u">
          7 0 callgsubr
          521 -94 callgsubr
          endchar
        </CharString>
        <CharString name="uacute">
          7 0 callgsubr
          745 -94 callgsubr
          194 239 -104 callsubr
        </CharString>
        <CharString name="ucircumflex">
          7 109 0 117 12 callgsubr
        </CharString>
        <CharString name="udieresis">
          7 99 0 117 25 callgsubr
        </CharString>
        <CharString name="ugrave">
          7 124 0 117 12 callsubr
        </CharString>
        <CharString name="underscore">
          -59 -93 -21 107 -20 hstem
          445 -25 22 callsubr
          -57 -83 -20 -136 hhcurveto
          -54 -46 2 6 -52 hvcurveto
          0 -6 -33 callsubr
          3 -13 15 -35 14 -6 rrcurveto
          -12 66 71 -5 66 hhcurveto
          61 58 4 7 58 hvcurveto
          endchar
        </CharString>
        <CharString name="v">
          -98 -58 callsubr
          86 35 20 158 69 178 70 125 rlinecurve
          -44 callsubr
          -76 -101 -94 -181 -40 -140 rrcurveto
          -14 75 -12 87 89 -34 callgsubr
          endchar
        </CharString>
        <CharString name="w">
          154 -58 callsubr
          67 35 12 96 31 106 38 95 rlinecurve
          15 -117 37 -125 32 -76 rrcurveto
          -10 9 19 -4 10 hhcurveto
          67 35 21 158 69 178 70 125 rlinecurve
          2 2 2 2 vvcurveto
          2 -2 2 -2 -9 -23 -6 -8 -10 vhcurveto
          -69 -100 -86 -179 -38 -140 rrcurveto
          -13 74 -13 86 88 -54 callsubr
          -60 -102 -62 -140 -30 -114 rrcurveto
          -14 75 -12 86 88 -34 callgsubr
          endchar
        </CharString>
        <CharString name="x">
          -77 -3 -21 25 -21 505 -20 hstemhm
          hintmask 10100000
          63 -17 rmoveto
          37 56 42 59 44 60 48 -67 54 -60 47 -45 rrcurveto
          -5 6 11 -5 27 hhcurveto
          4 6 3 4 hvcurveto
          -58 75 -55 82 -42 81 60 80 67 81 72 82 -22 16 rcurveline
          -81 -14 -44 -55 -42 -60 -42 -62 rlinecurve
          -23 53 -16 53 -7 50 -80 40 rcurveline
          -25 -17 10 -86 39 -89 51 -81 rlinecurve
          -46 -71 -44 -73 -43 -74 rrcurveto
          hintmask 01100000
          -8 8 16 -6 10 hhcurveto
          6 3 1 2 2 hvcurveto
          endchar
        </CharString>
        <CharString name="y">
          -98 -263 -21 769 -95 callsubr
          endchar
        </CharString>
        <CharString name="yacute">
          -98 -263 -21 1001 -95 callsubr
          167 725 -104 callsubr
        </CharString>
        <CharString name="ydieresis">
          -98 68 0 121 25 callgsubr
        </CharString>
        <CharString name="yen">
          -17 callsubr
          hstem
          277 -31 rmoveto
          -5 59 -3 53 48 vvcurveto
          17 10 vlineto
          -64 callsubr
          30 69 -9 17 -36 -14 -50 -15 -67 -5 rlinecurve
          5 64 rlineto
          39 47 4 7 36 hvcurveto
          30 69 -9 17 -28 -11 -36 -12 -47 -6 rlinecurve
          64 108 68 113 74 92 21 callgsubr
          -54 -77 -54 -128 -44 -108 rlinecurve
          -32 93 -34 124 -9 73 -85 43 rcurveline
          -26 -18 14 -88 42 -124 47 -111 rlinecurve
          -31 1 -30 2 -31 4 rrcurveto
          -88 callsubr
          32 -6 32 -5 33 -2 3 -7 3 -8 4 -7 rrcurveto
          -15 0 -15 1 -16 vhcurveto
          -43 -40 3 5 -42 hvcurveto
          -88 callsubr
          35 -7 36 -4 36 -3 5 -57 9 -57 11 -53 rrcurveto
          -59 callgsubr
          endchar
        </CharString>
        <CharString name="z">
          -97 4 -21 376 85 41 -88 callgsubr
          endchar
        </CharString>
        <CharString name="zcaron">
          -97 4 -21 376 85 273 -88 callgsubr
          -172 499 -86 callsubr
        </CharString>
        <CharString name="zero">
          -31 96 514 98 hstem
          469 345 rmoveto
          228 -85 104 -100 -139 -114 -160 -216 -228 85 -104 98 139 116 160 216 vhcurveto
          -377 -41 rmoveto
          158 79 117 104 72 63 -79 -170 -153 -80 -112 -104 -73 -61 74 165 vhcurveto
          endchar
        </CharString>
      <CharString index="0">
        381 658 rmoveto
        -34 callsubr
        -110 -58 -26 -103 -53 -146 -54 -132 rlinecurve
        4 -39 -21 9 -8 hhcurveto
        -2 -1 -2 -5 -7 5 -26 10 -11 hvcurveto
        13 -3 13 -3 12 -2 -38 -90 -36 -81 -26 -52 -69 callsubr
        40 73 34 66 31 64 rrcurveto
        -2 23 22 0 25 hhcurveto
        47 48 4 7 43 hvcurveto
        25 -87 27 -78 22 -47 rrcurveto
        -24 callsubr
        24 callsubr
        -1 hvcurveto
        -41 152 -68 292 24 245 rrcurveto
        return
      </CharString>
      <CharString index="1">
        421 367 rmoveto
        -73 callgsubr
        -5 37 37 -2 37 -47 callgsubr
        -75 -38 -87 -12 -87 -1 rlinecurve
        12 35 -26 16 -73 -50 -71 6 rlineto
        -40 callgsubr
        8 -3 8 -1 8 -2 -10 -61 -6 -113 -2 -56 -14 1 -15 2 -14 2 rrcurveto
        -88 callsubr
        20 -4 rcurveline
        -173 3 39 -159 137 hhcurveto
        -76 callsubr
        return
      </CharString>
      <CharString index="2">
        -24 16 -29 32 32 34 24 40 20 -8 24 -21 17 vhcurveto
        -56 -8 -29 -26 -38 vvcurveto
        return
      </CharString>
      <CharString index="3">
        rmoveto
        -48 -74 -21 -34 -55 -88 -51 -81 rcurveline
        -6 5 -23 10 -7 vhcurveto
        -13 38 44 -5 45 hhcurveto
        13 9 0 1 14 hvcurveto
        3 -27 4 -23 4 -27 rrcurveto
        -9 6 16 -3 8 hhcurveto
        10 3 0 8 hvcurveto
        -2 -30 callgsubr
        14 vlineto
        9 1 8 1 8 3 25 55 rcurveline
        -13 24 -35 -13 3 84 12 84 25 58 rlinecurve
        13 -20 -41 16 -35 hhcurveto
        1 -90 rmoveto
        -4 -31 -1 -32 -35 vvcurveto
        -27 0 -26 2 -28 vhcurveto
        -5 -32 -32 -2 -30 hhcurveto
        29 58 20 37 48 91 rrcurveto
        endchar
      </CharString>
      <CharString index="4">
        381 368 rmoveto
        -33 callgsubr
        -217 -50 -62 -157 24 callgsubr
        -101 callsubr
        -117 30 rmoveto
        return
      </CharString>
      <CharString index="5">
        -20 hstemhm
        41 86 0 172 hintmask 11100000
        -103 callgsubr
        hintmask 11010000
        -87 callgsubr
        return
      </CharString>
      <CharString index="6">
        -103 callsubr
        -60 callsubr
        return
      </CharString>
      <CharString index="7">
        rmoveto
        138 -52 63 -62 -85 -70 -97 -130 -139 52 -62 61 85 71 96 131 vhcurveto
        -220 -23 rmoveto
        86 43 64 56 39 34 -43 -93 -84 -43 -62 -56 -39 -34 41 91 vhcurveto
        return
      </CharString>
      <CharString index="8">
        677 rmoveto
        -87 -41 13 -108 62 -185 60 -127 rlinecurve
        1 -79 8 -83 14 -73 rrcurveto
        -9 7 28 -6 -64 callgsubr
        6 -4 22 90 vvcurveto
        48 2 44 4 39 vhcurveto
        50 197 173 243 16 vvcurveto
        2 -3 3 -3 -12 -24 -6 -8 -7 vhcurveto
        -82 -102 -125 -216 -16 -35 rrcurveto
        -33 107 -18 121 121 vvcurveto
        return
      </CharString>
      <CharString index="9">
        -61 callsubr
        -192 112 -105 132 203 74 174 161 -96 callgsubr
        return
      </CharString>
      <CharString index="10">
        rmoveto
        -1 -30 callgsubr
        111 9 133 33 77 vhcurveto
        -57 29 -24 -13 -3 -12 -2 -15 -2 -12 rlinecurve
        -30 -38 -43 -43 -48 -27 rrcurveto
        -17 1 25 -18 9 hhcurveto
        26 12 25 13 23 19 rrcurveto
        -1 -7 0 -6 -4 vvcurveto
        -82 6 -83 13 -84 -51 callsubr
        return
      </CharString>
      <CharString index="11">
        122 -51 115 -64 55 vhcurveto
        29 58 rlineto
        -166 -602 rmoveto
        -91 -82 89 153 156 76 111 175 25 hvcurveto
        74 -74 36 -136 -92 -48 callgsubr
        return
      </CharString>
      <CharString index="12">
        rmoveto
        28 139 19 332 5 177 -78 callsubr
        -87 -14 -95 vhcurveto
        -73 callsubr
        return
      </CharString>
      <CharString index="13">
        -20 hstemhm
        350 81 hintmask 10110000
        -44 callgsubr
        -16 -129 -22 -120 -118 vvcurveto
        -66 23 -47 57 69 86 93 132 55 vhcurveto
        11 -76 17 -86 23 -55 rrcurveto
        hintmask 01110000
        -8 8 20 -6 10 hhcurveto
        5 24 callsubr
        hvcurveto
        -12 45 -14 -53 callgsubr
        -25 14 -80 -35 rlineto
        -6 -34 -3 -26 -65 vvcurveto
        -11 0 -13 1 -16 vhcurveto
        hintmask 10110000
        -130 -42 -58 -65 -47 hhcurveto
        -45 -14 64 93 61 6 76 8 76 hvcurveto
        return
      </CharString>
      <CharString index="14">
        -99 47 -67 84 86 89 106 133 55 vhcurveto
        7 -9 -15 7 -6 hhcurveto
        -4 -2 -2 -4 -1 hvcurveto
        return
      </CharString>
      <CharString index="15">
        -92 -44 -54 -56 -61 hhcurveto
        -39 -34 28 70 -6 hvcurveto
        56 11 166 51 32 131 rrcurveto
        return
      </CharString>
      <CharString index="16">
        -85 callgsubr
        -196 -507 -91 callsubr
      </CharString>
      <CharString index="17">
        -80 callsubr
        -6 24 -5 25 -2 rrcurveto
        1 -18 0 -18 -21 -36 callsubr
        return
      </CharString>
      <CharString index="18">
        144 -17 -95 callgsubr
        return
      </CharString>
      <CharString index="19">
        -20 hstem
        385 33 rmoveto
        -70 23 -91 9 -97 9 86 79 138 138 31 104 -34 70 rcurveline
        0 -36 -21 -68 -94 -91 41 0 vhcurveto
        -17 -26 34 -88 rlineto
        -8 29 38 -4 36 hhcurveto
        35 34 3 11 26 hvcurveto
        -60 -146 -190 -214 0 vvcurveto
        16 -25 rlineto
        10 60 57 4 61 hhcurveto
        56 54 -4 -15 65 hvcurveto
        11 callsubr
        6 9 -4 25 -6 8 hvcurveto
        return
      </CharString>
      <CharString index="20">
        23 12 -16 -19 -48 -52 -69 -120 -31 hvcurveto
        127 8 83 56 46 hhcurveto
        return
      </CharString>
      <CharString index="21">
        rmoveto
        -24 hlineto
        -34 -53 -42 -45 -73 -49 rrcurveto
        -15 24 -22 9 -1 vhcurveto
        43 17 45 30 33 31 12 -26 15 -24 21 -22 63 10 rcurveline
        10 16 -45 45 -31 46 -26 62 rlinecurve
        endchar
      </CharString>
      <CharString index="22">
        -26 callgsubr
        -53 -47 2 6 -51 hvcurveto
        -88 callsubr
        rrcurveto
        -11 59 62 -5 60 hhcurveto
        -64 callsubr
        return
      </CharString>
      <CharString index="23">
        -8 65 -7 116 123 vvcurveto
        144 10 127 36 92 vhcurveto
        -35 callsubr
        return
      </CharString>
      <CharString index="24">
        -84 callgsubr
        -12 -77 -7 -75 -77 vvcurveto
        return
      </CharString>
      <CharString index="25">
        rmoveto
        -71 50 -46 60 -45 80 -20 -12 rcurveline
        -26 -87 44 -55 36 -25 50 -35 rlinecurve
        -1 -13 -56 -35 -40 -25 -54 -55 rlinecurve
        10 -87 18 -12 70 86 49 54 77 50 rlinecurve
        return
      </CharString>
      <CharString index="26">
        rmoveto
        42 -23 57 -116 -17 -22 -2 -4 -28 vhcurveto
        -25 -47 11 -27 rlineto
        14 24 37 12 30 hhcurveto
        28 24 -11 -36 -64 -86 -106 -92 -107 hvcurveto
        13 -27 rlineto
        7 47 40 3 41 hhcurveto
        38 49 -3 -10 44 hvcurveto
        6 6 2 10 8 -4 20 -7 7 hvcurveto
        -44 16 -65 7 -62 5 rrcurveto
        76 79 77 92 63 vvcurveto
        endchar
      </CharString>
      <CharString index="27">
        10 -12 -72 callgsubr
        -1 hvcurveto
        return
      </CharString>
      <CharString index="28">
        -90 callgsubr
        -57 callsubr
        return
      </CharString>
      <CharString index="29">
        rmoveto
        -209 -156 -159 -215 -209 124 -95 152 209 157 159 215 209 -126 95 -151 hvcurveto
        -45 vmoveto
        118 99 -81 -178 -189 -131 -140 -175 -119 -97 81 178 189 130 140 175 hvcurveto
        return
      </CharString>
      <CharString index="30">
        -20 hstem
        96 81 -26 callsubr
        rlineto
        10 -39 16 -67 -109 vvcurveto
        -69 -7 -87 -18 -108 vhcurveto
        -1 vlineto
        -2 2 -1 5 9 -61 callgsubr
        return
      </CharString>
      <CharString index="31">
        rmoveto
        40 90 36 90 39 107 8 -78 20 -95 24 -91 -55 -16 -59 -6 -53 -1 rrcurveto
        return
      </CharString>
      <CharString index="32">
        14 -19 rlineto
        6 12 13 3 13 hhcurveto
        29 13 -18 -19 -22 -19 -25 -31 -24 -28 14 26 -14 hvcurveto
        -25 -48 5 -15 rlineto
        return
      </CharString>
      <CharString index="33">
        -9 17 rlineto
        -17 -43 -64 -18 -90 hhcurveto
        return
      </CharString>
      <CharString index="34">
        -74 callgsubr
        -23 hlineto
        7 77 13 77 14 60 rrcurveto
        return
      </CharString>
      <CharString index="35">
        -12 4 -7 hhcurveto
        -3 -3 -3 -5 return
      </CharString>
      <CharString index="36">
        65 -21 441 -20 hstem
        40 234 -83 callsubr
        return
      </CharString>
      <CharString index="37">
        7 -10 -15 7 -6 hhcurveto
        -3 -3 -2 -4 -1 hvcurveto
        -92 -37 -47 -56 -51 hhcurveto
        -42 -37 40 78 100 54 108 101 19 22 -4 -9 23 hvcurveto
        32 89 -22 19 rlineto
        -252 -61 -63 -165 -128 vvcurveto
        return
      </CharString>
      <CharString index="38">
        -282 -67 callgsubr
      </CharString>
      <CharString index="39">
        rmoveto
        126 -50 109 -49 72 -72 31 11 rcurveline
        34 64 -72 50 -97 39 -90 31 rlinecurve
        2 13 100 30 108 40 88 50 rlinecurve
        -13 68 -30 11 -111 -77 -111 -48 -137 -50 rlinecurve
        return
      </CharString>
      <CharString index="40">
        -106 callsubr
        endchar
      </CharString>
      <CharString index="41">
        -35 callgsubr
        14 hvcurveto
        -2 26 27 -1 26 hhcurveto
        -64 callsubr
        return
      </CharString>
      <CharString index="42">
        -33 callsubr
        1 -11 return
      </CharString>
      <CharString index="43">
        -46 callsubr
        2 hvcurveto
        return
      </CharString>
      <CharString index="44">
        468 -21 258 -20 hstem
        120 455 rmoveto
        5 52 15 98 26 65 -70 35 rcurveline
        -19 -9 rlineto
        -13 -98 -4 -61 -66 vvcurveto
        -19 2 -5 8 16 22 3 5 12 vhcurveto
        return
      </CharString>
      <CharString index="45">
        -103 -14 -47 -106 -84 hhcurveto
        -100 -30 119 135 126 27 139 21 66 hvcurveto
        return
      </CharString>
      <CharString index="46">
        -29 callgsubr
        37 128 24 125 126 vvcurveto
        22 -1 22 -1 22 vhcurveto
        return
      </CharString>
      <CharString index="47">
        0 -3 -65 callgsubr
        9 -33 10 -4 return
      </CharString>
      <CharString index="48">
        -9 8 -59 callsubr
        return
      </CharString>
      <CharString index="49">
        135 vstem
        39 479 rmoveto
        -77 callsubr
        return
      </CharString>
      <CharString index="50">
        317 458 rmoveto
        -135 -60 -158 -125 -182 -16 callgsubr
        return
      </CharString>
      <CharString index="51">
        -230 -395 rmoveto
        -39 -11 31 43 112 100 72 92 52 hvcurveto
        -1 -19 0 -23 -33 vvcurveto
        -11 0 -13 1 -14 vhcurveto
        -132 -43 -59 -65 -40 hhcurveto
        return
      </CharString>
      <CharString index="52">
        449 283 rmoveto
        5 -39 -35 2 -35 hhcurveto
        -84 -97 -16 -23 -106 hvcurveto
        -3 -7 -1 -23 -9 vvcurveto
        -14 2 -4 3 vhcurveto
        10 76 77 4 62 hhcurveto
        return
      </CharString>
      <CharString index="53">
        70 60 -44 68 hhcurveto
        25 24 7 16 24 hvcurveto
        2 15 2 16 1 15 rrcurveto
        return
      </CharString>
      <CharString index="54">
        164 71 vvcurveto
        75 13 90 20 59 vhcurveto
        return
      </CharString>
      <CharString index="55">
        9 -13 -12 5 -5 hhcurveto
        -7 -6 -5 -6 -2 hvcurveto
        -88 -25 -33 -45 -53 hhcurveto
        -36 -36 47 105 67 33 90 116 13 14 -1 -3 17 hvcurveto
        return
      </CharString>
      <CharString index="56">
        -58 -51 27 -56 hhcurveto
        -52 -41 -21 -48 -37 hvcurveto
        -1 -6 0 -5 -7 vvcurveto
        return
      </CharString>
      <CharString index="57">
        -37 callgsubr
        18 -225 84 -274 71 -146 rlinecurve
        -18 callsubr
        endchar
      </CharString>
      <CharString index="58">
        78 174 113 55 149 197 18 20 -1 -3 21 hvcurveto
        return
      </CharString>
      <CharString index="59">
        vvcurveto
        -125 -62 -103 -126 -4 vhcurveto
        return
      </CharString>
      <CharString index="60">
        hhcurveto
        45 45 3 6 47 -2 callsubr
        return
      </CharString>
      <CharString index="61">
        26 23 -17 44 hhcurveto
        42 39 29 65 28 hvcurveto
        return
      </CharString>
      <CharString index="62">
        -94 -69 -57 -87 -37 -40 11 23 -40 hvcurveto
        -9 -10 -33 -13 hvcurveto
        -30 54 57 -13 51 hhcurveto
        123 116 75 132 return
      </CharString>
      <CharString index="63">
        159 468 rmoveto
        3 -1 1 -6 -9 -26 -6 -8 -8 vhcurveto
        return
      </CharString>
      <CharString index="64">
        -58 -30 15 -9 hhcurveto
        -1 0 22 callgsubr
        7 -11 hvcurveto
        return
      </CharString>
      <CharString index="65">
        -23 callsubr
        -49 86 -37 -88 vvcurveto
        -64 -56 -61 -126 -19 vhcurveto
        3 37 1 37 36 vvcurveto
        return
      </CharString>
      <CharString index="66">
        164 356 -85 callsubr
        endchar
      </CharString>
      <CharString index="67">
        -1 -1 -1 -4 -7 7 -24 13 -9 hvcurveto
        return
      </CharString>
      <CharString index="68">
        -8 vvcurveto
        -15 4 -4 return
      </CharString>
      <CharString index="69">
        rmoveto
        -61 -35 55 74 98 83 70 112 19 hvcurveto
        30 -37 15 -51 -51 vvcurveto
        -90 -47 -87 -97 vhcurveto
        endchar
      </CharString>
      <CharString index="70">
        183 vvcurveto
        33 1 34 3 34 vhcurveto
        -26 16 -87 -41 return
      </CharString>
      <CharString index="71">
        -262 -10 -21 743 -20 hstem
        93 712 rmoveto
        -48 callsubr
        return
      </CharString>
      <CharString index="72">
        -76 -35 102 123 13 0 13 1 return
      </CharString>
      <CharString index="73">
        vvcurveto
        52 6 50 12 50 vhcurveto
        return
      </CharString>
      <CharString index="74">
        44 -15 49 -46 16 vhcurveto
        return
      </CharString>
      <CharString index="75">
        -238 -44 -63 -115 -110 vvcurveto
        -130 80 -70 96 143 73 122 158 return
      </CharString>
      <CharString index="76">
        -87 callgsubr
        endchar
      </CharString>
      <CharString index="77">
        19 -1 24 28 vvcurveto
        return
      </CharString>
      <CharString index="78">
        21 6 8 8 vhcurveto
        return
      </CharString>
      <CharString index="79">
        hlineto
        -20 -21 0 4 -21 hvcurveto
        -2 -1 -1 -7 -8 4 -20 13 -12 hvcurveto
        134 return
      </CharString>
      <CharString index="80">
        vvcurveto
        -69 -7 -88 -18 -108 vhcurveto
        4 callgsubr
        36 return
      </CharString>
      <CharString index="81">
        rmoveto
        -74 callgsubr
        return
      </CharString>
      <CharString index="82">
        463 651 rmoveto
        -12 callsubr
        return
      </CharString>
      <CharString index="83">
        -121 -34 -40 -59 -84 hhcurveto
        return
      </CharString>
      <CharString index="84">
        -7 -15 callgsubr
        hstem
        25 109 vstem
        242 -28 rmoveto
        79 48 return
      </CharString>
      <CharString index="85">
        -35 15 -11 hhcurveto
        -2 -1 -1 -6 -7 return
      </CharString>
      <CharString index="86">
        -9 17 -32 -13 -37 -13 -52 -6 rlinecurve
        24 1 23 23 vvcurveto
        return
      </CharString>
      <CharString index="87">
        208 24 vvcurveto
        3 -1 2 -3 -12 -25 -8 -11 -12 vhcurveto
        return
      </CharString>
      <CharString index="88">
        -21 149 -20 hstem
        39 138 return
      </CharString>
      <CharString index="89">
        9 -29 callgsubr
        return
      </CharString>
      <CharString index="90">
        -16 callsubr
        hstem
        return
      </CharString>
      <CharString index="91">
        vvcurveto
        -66 26 -47 60 return
      </CharString>
      <CharString index="92">
        -21 705 -20 return
      </CharString>
      <CharString index="93">
        rrcurveto
        9 8 6 21 9 vvcurveto
        8 -2 1 -2 vhcurveto
        -12 return
      </CharString>
      <CharString index="94">
        rrcurveto
        20 8 23 21 4 vvcurveto
        2 0 1 -1 1 vhcurveto
        return
      </CharString>
      <CharString index="95">
        -16 9 16 -4 10 hhcurveto
        10 6 10 60 6 hvcurveto
        return
      </CharString>
      <CharString index="96">
        32 86 -16 26 rlineto
        -296 -28 -38 -86 -79 vvcurveto
        return
      </CharString>
      <CharString index="97">
        -73 callsubr
        endchar
      </CharString>
      <CharString index="98">
        -61 21 -124 -132 vvcurveto
        return
      </CharString>
      <CharString index="99">
        -21 711 -20 return
      </CharString>
      <CharString index="100">
        hstem
        42 91 vstem
        return
      </CharString>
      <CharString index="101">
        -13 -21 723 -20 hstem
        384 101 vstem
        72 return
      </CharString>
      <CharString index="102">
        33 78 -11 18 -37 -14 -44 -15 -65 -6 rlinecurve
        return
      </CharString>
      <CharString index="103">
        hhcurveto
        43 13 1 callsubr
        -7 -77 hvcurveto
        return
      </CharString>
      <CharString index="104">
        5 8 3 13 11 vvcurveto
        17 -5 5 -4 vhcurveto
        return
      </CharString>
      <CharString index="105">
        -4 2 -1 9 11 27 7 12 10 vhcurveto
        15 return
      </CharString>
      <CharString index="106">
        15 callsubr
        96 vstem
        return
      </CharString>
      <CharString index="107">
        -22 120 -105 -21 return
      </CharString>
      <CharString index="108">
        33 86 rcurveline
        -17 26 return
      </CharString>
      <CharString index="109">
        -17 26 rlineto
        -306 -43 -42 -108 -53 return
      </CharString>
      <CharString index="110">
        11 133 8 125 4 116 4 return
      </CharString>
      <CharString index="111">
        11 callgsubr
        -18 callgsubr
        return
      </CharString>
      <CharString index="112">
        -3 1 -1 10 10 27 7 12 12 vhcurveto
        return
      </CharString>
      <CharString index="113">
        100 -83 83 15 -20 hstemhm
        return
      </CharString>
      <CharString index="114">
        121 118 vvcurveto
        66 return
      </CharString>
      <CharString index="115">
        -2 -17 callsubr
        return
      </CharString>
      <CharString index="116">
        305 -82 -21 return
      </CharString>
      <CharString index="117">
        7 10 9 vhcurveto
        return
      </CharString>
      <CharString index="118">
        -2 2 -1 5 return
      </CharString>
      <CharString index="119">
        195 endchar
      </CharString>
      <CharString index="120">
        33 36 25 42 21 -8 25 -22 18 return
      </CharString>
      <CharString index="121">
        19 -85 rlineto
        7 28 24 4 23 hhcurveto
        return
      </CharString>
      <CharString index="122">
        vvcurveto
        48 0 47 -3 45 vhcurveto
        endchar
      </CharString>
      <CharString index="123">
        -157 -66 -21 837 -20 hstem
        return
      </CharString>
      <CharString index="124">
        -157 -62 -21 827 -20 hstem
        return
      </CharString>
      <CharString index="125">
        51 -21 34 86 473 -20 hstem
        return
      </CharString>
      <CharString index="126">
        rmoveto
        -1 20 24 0 18 hhcurveto
        5 return
      </CharString>
      <CharString index="127">
        -59 -8 -31 -28 -39 vvcurveto
        endchar
      </CharString>
      <CharString index="128">
        -29 23 rcurveline
        -87 -20 return
      </CharString>
      <CharString index="129">
        -1 -6 -7 4 -18 return
      </CharString>
      <CharString index="130">
        -7 callsubr
        7 12 return
      </CharString>
      <CharString index="131">
        -126 vvcurveto
        return
      </CharString>
      <CharString index="132">
        200 endchar
      </CharString>
</ttFont>
